<svg width="1767" height="1767" viewBox="0 0 1767 1767" fill="none" xmlns="http://www.w3.org/2000/svg">
<mask id="mask0_416_5964" style="mask-type:alpha" maskUnits="userSpaceOnUse" x="0" y="0" width="1767" height="1767">
<rect width="1767" height="1767" fill="#1A2DD8"/>
</mask>
<g mask="url(#mask0_416_5964)">
<rect width="1767" height="1767" fill="#F8EDFF"/>
<g opacity="0.5">
<path d="M2676.37 2271.42C2802.9 2388.1 2910.73 2525.99 3050.26 2626.77C3189.78 2727.56 3375.87 2787.57 3535.14 2722.34C3673.81 2665.58 3763.01 2525.39 3800.26 2380.07C3902.79 1982.57 3620.84 1528.74 3219.26 1444.02C3063.24 1411.11 2894.58 1426.33 2751.38 1356.66C2569.31 1268.18 2464.98 1059.94 2278.21 981.982C2095.28 905.56 1882.79 975.827 1715.58 1082.43C1578.87 1169.53 1454.89 1284.59 1387.91 1432.14C1341.94 1533.35 1326.48 1657.39 1383.64 1752.7C1461.56 1882.64 1637.06 1909.91 1788.37 1904.44C2150.64 1891.19 2406.37 2022.49 2676.37 2271.42Z" stroke="#E0AAFF" stroke-width="6" stroke-miterlimit="10"/>
<path d="M1608.6 1042.25C1466.69 1132.26 1339.72 1253.56 1272.14 1407.18C1225.83 1512.49 1211.3 1640.12 1268.63 1740.14C1348.95 1880.5 1527.69 1921.79 1686.27 1927.43C1785.62 1930.52 1884.44 1943.12 1981.39 1965.04C2027.52 1975.64 2072.47 1988.32 2116.21 2003.08C2305.12 2066.26 2465.33 2182 2632.28 2338.61C2688.93 2391.69 2744.12 2448.28 2800.09 2502.05C2876.98 2576.42 2966.87 2651.48 3051.45 2690.12C3064.87 2696.27 3077.77 2701.91 3090.84 2707.21C3109.73 2714.73 3128.95 2721.4 3149.71 2728.16C3210.66 2748.38 3272.6 2765.5 3335.29 2779.45C3444.48 2802.27 3560.34 2798.85 3657.32 2746.11C3796.08 2670.8 3877.25 2520.35 3902.88 2366.22C3919.97 2261.44 3914.7 2154.23 3887.41 2051.64C3859.47 1945.47 3809.32 1845.11 3746.18 1750.82C3625.88 1571.31 3453.97 1422.65 3247.11 1367.6C3087.17 1324.86 2911.76 1330.33 2760.1 1257.07C2566.74 1163.89 2447.9 956.422 2248.65 898.037C2171.24 875.212 2091.01 880.512 2008.64 894.104C1871 916.928 1728.91 966.338 1608.6 1042.25Z" stroke="#E0AAFF" stroke-width="6" stroke-miterlimit="10"/>
<path d="M1501.54 1002.16C1354.16 1094.82 1224.37 1222.53 1156.36 1382.22C1109.71 1491.72 1095.95 1622.94 1153.46 1727.66C1236.25 1878.45 1418.32 1933.76 1584.17 1950.51C1688.92 1960.86 1792.8 1978.72 1895 2003.94C1944.16 2016.14 1992.15 2029.96 2038.97 2045.4C2244.54 2111.99 2411.84 2238.25 2588.7 2405.71C2653.72 2467.52 2719.08 2533.17 2785.22 2593.78C2875.1 2675.76 2990.28 2759.7 3087.93 2780.47C3103.31 2783.72 3117.58 2786.2 3131.94 2788.08C3152.53 2790.65 3173.21 2792.27 3196.45 2794.75C3258.39 2801.16 3335.54 2816.72 3411.76 2828.94C3538.21 2848.52 3673.72 2840.4 3779.92 2770.13C3919.11 2678.06 3991.91 2515.82 4006 2352.63C4015.06 2241.75 4001.22 2130.18 3965.33 2024.88C3928.42 1915.46 3868.02 1814.59 3798.47 1715.26C3665.95 1525.92 3490.88 1360.25 3274.62 1291.52C3110.32 1239.12 2928.07 1234.59 2767.27 1157.65C2562.64 1059.77 2427.81 854.099 2217.54 813.922C2130.99 797.423 2044.18 815.631 1952.67 835.891C1800.5 870.17 1637.74 916.417 1501.54 1002.16Z" stroke="#E0AAFF" stroke-width="6" stroke-miterlimit="10"/>
<path d="M1394.4 961.978C1241.72 1057.63 1109.12 1191.84 1040.51 1357.34C993.514 1470.95 980.698 1605.84 1038.29 1715.18C1123.73 1876.48 1308.62 1945.98 1482.07 1973.68C1592.05 1991.22 1701.07 2014.33 1808.71 2042.92C1860.66 2056.71 1911.64 2071.61 1961.65 2087.63C2183.8 2157.64 2358.36 2294.58 2544.19 2473.07C2617.67 2543.68 2693.03 2618.4 2769.58 2685.5C2872.11 2775.26 3013.18 2868.18 3123.65 2870.57C3139.83 2870.92 3156 2870.29 3172.1 2868.69C3194.49 2866.47 3216.61 2863.05 3242.33 2861.25C3310.69 2856.21 3400.14 2867.84 3487.46 2877.84C3631.09 2894.25 3786.51 2882.03 3901.68 2793.47C4041.81 2686.01 4105.89 2510.86 4108.28 2338.35C4109.46 2221.48 4087.2 2105.56 4042.83 1997.44C3996.78 1884.86 3926.21 1783.73 3850.25 1678.93C3705.51 1479.84 3527.19 1297.25 3301.63 1214.75C3133.82 1153.38 2944.74 1138.59 2775.14 1058.06C2559.23 955.482 2407.74 752.8 2187.13 729.805C2091.18 719.803 1998.22 750.748 1898 777.676C1729.93 823.495 1546.75 867.006 1394.4 961.978Z" stroke="#E0AAFF" stroke-width="6" stroke-miterlimit="10"/>
<path d="M1287.34 921.887C1129.28 1020.36 993.765 1160.64 924.729 1332.21C877.309 1450.01 864.92 1588.66 923.191 1702.61C1010.6 1874.43 1199.08 1957.18 1379.96 1996.59C1496.93 2022.23 1611.42 2050.27 1722.41 2081.64C1777.26 2097.15 1831.38 2113.16 1884.75 2129.69C2123.98 2203.12 2305.04 2350.83 2500.44 2540.01C2582.38 2619.42 2667.65 2703.37 2754.71 2776.88C2870.32 2874.42 3036.67 2976.4 3160.13 2960.33C3178.04 2957.95 3195.72 2954.14 3213.02 2948.96C3237.2 2941.87 3260.78 2933.4 3288.89 2927.33C3364.17 2910.92 3465.5 2918.79 3563.84 2926.74C3724.73 2940.07 3899.97 2924.26 4024.2 2816.89C4165.61 2694.73 4220.72 2505.9 4211.23 2324.16C4204.6 2201.34 4173.95 2081.02 4121.01 1970C4065.98 1854.26 3985.16 1752.28 3902.7 1642.6C3745.83 1433.85 3564.27 1234.5 3329.39 1138.25C3157.66 1067.72 2961.99 1042.59 2783.42 958.731C2556.23 851.534 2387.66 652.785 2157.05 645.946C2051.53 642.869 1952.5 685.867 1843.31 719.633C1659.18 776.394 1455.75 816.999 1287.34 921.887Z" stroke="#E0AAFF" stroke-width="6" stroke-miterlimit="10"/>
<path d="M1180.29 881.796C1016.84 983.18 878.51 1129.7 808.875 1307.51C761.199 1429.4 749.75 1571.73 808.021 1690.3C897.734 1872.72 1089.46 1969.15 1277.95 2019.84C1399.02 2052.49 1519.15 2086 1636.2 2120.71C1693.96 2137.81 1750.92 2154.9 1807.09 2172C2062.81 2248.94 2251.38 2407.42 2456.44 2607.54C2546.84 2695.67 2642.11 2788.85 2739.59 2868.78C2867.76 2974.18 3059.83 3085.31 3196.28 3050.69C3216.05 3045.54 3235.31 3038.56 3253.78 3029.83C3280.24 3016.35 3307.45 3004.42 3335.29 2994.1C3417.14 2966.23 3530.7 2969.91 3640.06 2976.23C3818.12 2986.49 4013.61 2967.68 4146.39 2840.91C4289.5 2704.14 4335.13 2501.46 4314.02 2310.91C4299.49 2182.17 4260.45 2057.39 4199.02 1943.33C4134.85 1824.51 4043.86 1721.93 3955 1607.21C3785.91 1388.71 3601.1 1172.78 3356.91 1062.08C3181.24 982.496 2978.4 946.935 2791.37 859.143C2552.48 747.331 2366.56 553.197 2126.3 561.831C2011.12 565.934 1906.11 620.9 1788.03 661.334C1589.04 729.636 1364.76 767.248 1180.29 881.796Z" stroke="#E0AAFF" stroke-width="6" stroke-miterlimit="10"/>
<path d="M1073.14 841.362C904.483 945.737 763.163 1098.41 693.015 1282.37C644.997 1408.37 634.317 1554.38 693.015 1677.56C784.865 1870.59 980.013 1980.52 1175.84 2042.75C1301.02 2082.5 1426.7 2121.39 1549.91 2159.43C1610.57 2178.07 1670.64 2196.45 1729.93 2214.14C2002.32 2294.41 2197.47 2463.67 2412.1 2674.56C2510.78 2771.58 2616.04 2873.91 2724.04 2960.33C2865.36 3073.51 3082.9 3193.79 3232.08 3140.62C3253.72 3132.67 3274.48 3122.5 3294.02 3110.27C3321.93 3091.66 3351.08 3074.98 3381.26 3060.35C3469.69 3021.11 3595.37 3020.85 3715.76 3025.3C3911.08 3032.39 4127.16 3010.51 4268.23 2864.42C4413.48 2714.14 4449.36 2496.84 4416.38 2296.55C4394.02 2161.99 4346.58 2032.83 4276.51 1915.81C4203.55 1793.99 4102.04 1690.9 4007.03 1571.05C3825.72 1342.89 3637.58 1110.46 3384.25 985.573C3204.82 896.926 2994.89 850.85 2799.15 759.468C2549.32 642.954 2346.31 454.463 2096.13 477.8C1971.3 489.425 1860.49 556.359 1733.35 603.204C1518.21 683.302 1273.76 717.581 1073.14 841.362Z" stroke="#E0AAFF" stroke-width="6" stroke-miterlimit="10"/>
<path d="M966.084 801.526C792.04 908.894 647.815 1067.72 577.24 1257.67C528.795 1387.86 518.798 1537.63 577.753 1665.34C671.739 1868.96 870.39 1992.4 1073.31 2066.09C1202.59 2112.93 1333.91 2157.21 1463.18 2198.59C1526.75 2218.85 1589.89 2238.34 1652.18 2256.63C1941.31 2340.32 2143.38 2520.52 2367.58 2742.09C2474.72 2847.92 2589.73 2959.31 2708.41 3052.31C2862.2 3173.27 3105.37 3302.78 3267.71 3230.97C3291.29 3220.18 3313.61 3206.82 3334.26 3191.14C3363.57 3169.51 3391.51 3145.92 3427.05 3127.11C3522.15 3076.42 3659.97 3072.23 3791.46 3074.79C4003.95 3078.81 4240.97 3054.28 4389.98 2888.44C4537.37 2724.48 4563.42 2492.31 4518.14 2282.96C4487.95 2142.63 4432.17 2009.06 4353.58 1888.96C4271.9 1763.73 4160.82 1660.04 4058.98 1535.06C3865.45 1297.16 3673.98 1048.4 3411.42 909.15C3227.63 811.699 3011.3 755.28 2806.75 659.965C2545.73 538.749 2325.29 356.242 2065.46 393.769C1930.97 413.174 1814.26 491.562 1678.07 545.075C1447.63 636.201 1182.76 667.915 966.084 801.526Z" stroke="#E0AAFF" stroke-width="6" stroke-miterlimit="10"/>
<path d="M859.026 761.435C679.599 871.709 532.554 1036.69 461.382 1232.79C412.68 1367.09 403.281 1520.61 462.663 1652.86C558.785 1867.17 760.854 2004.03 971.467 2088.82C1104.93 2142.76 1241.8 2192.43 1377.23 2237.14C1443.7 2259.02 1509.72 2279.48 1575.28 2298.52C1881.08 2386.05 2089.98 2576.68 2323.83 2809.28C2439.35 2924 2564.61 3044.53 2693.54 3144.04C2860.49 3272.86 3129.29 3411.51 3304.19 3321.07C3329.69 3307.44 3353.51 3290.88 3375.19 3271.75C3406.29 3245.25 3435.68 3216.61 3473.7 3193.53C3575.38 3131.47 3725.07 3123.78 3867.93 3123.78C4097.51 3124.89 4355.72 3098.13 4512.5 2911.95C4662.28 2734.48 4678.34 2487.52 4621.61 2268.94C4583.57 2122.85 4519.43 1984.85 4432.27 1861.61C4340.94 1733.38 4219.35 1629.09 4111.18 1498.9C3905.44 1251.68 3710.55 986.684 3438.84 832.814C3250.87 726.557 3027.87 659.111 2814.69 560.548C2542.31 434.631 2304.87 258.449 2035.04 309.825C1890.99 337.008 1768.46 426.766 1623.21 486.861C1377.06 589.869 1091.77 618.249 859.026 761.435Z" stroke="#E0AAFF" stroke-width="6" stroke-miterlimit="10"/>
<path d="M751.712 721.684C567.073 834.95 417.038 1006.17 345.438 1208.34C296.309 1346.74 287.594 1504.03 347.318 1640.8C445.575 1865.8 651.233 2016.08 869.194 2112.67C1006.84 2173.71 1149.27 2228.76 1290.68 2276.89C1360.11 2300.43 1429.15 2322 1497.79 2341.6C1820.33 2432.13 2036.07 2633.95 2279.58 2876.98C2403.47 3000.59 2538.8 3130.19 2678.16 3236.02C2857.59 3372.79 3152.02 3520.59 3340.16 3411.43C3367.55 3394.89 3392.88 3375.15 3415.6 3352.62C3448.5 3321.33 3479.34 3287.56 3519.84 3260.29C3628.1 3186.78 3790.26 3174.81 3943.8 3173.44C4190.64 3171.48 4470.21 3141.9 4634.51 2936.14C4787.11 2744.91 4793.09 2482.65 4724.74 2255.26C4678.92 2103.43 4606.38 1961.01 4510.54 1834.68C4410.23 1703.12 4278.39 1598.4 4163.73 1463.17C3945.85 1205.86 3747.46 924.622 3466.7 756.305C3274.8 641.329 3044.96 563.112 2823.07 460.959C2539.4 330.34 2284.79 160.826 2005.05 225.708C1851.26 261.354 1722.67 361.969 1568.62 428.731C1306.48 543.109 1000.86 568.583 751.712 721.684Z" stroke="#E0AAFF" stroke-width="6" stroke-miterlimit="10"/>
<path d="M644.825 681.166C454.888 797.423 301.948 974.717 229.75 1182.95C180.28 1325.54 172.248 1486.59 232.399 1627.9C332.707 1863.49 541.868 2027.19 767.262 2135.41C909.583 2203.45 1055.57 2263.52 1204.55 2315.36C1276.83 2340.49 1349.12 2363.31 1420.72 2383.74C1759.92 2477.78 1982.5 2690.46 2235.74 2944.18C2367.92 3076.59 2513.09 3215.67 2662.95 3327.83C2855.19 3472.64 3175.6 3629.41 3376.22 3501.61C3405.57 3482.14 3432.45 3459.18 3456.27 3433.23C3490.88 3397.07 3523.18 3358.34 3566.07 3326.71C3680.99 3241.91 3855.29 3225.84 4019.93 3222.68C4283.95 3217.64 4585.04 3185.75 4756.69 2959.82C4911.94 2755.43 4907.5 2478.63 4826.84 2241.76C4773.36 2084.04 4692.52 1936.98 4588.03 1807.33C4478.58 1672.61 4336.58 1567.29 4215.51 1426.93C3985.41 1159.87 3783.52 862.733 3493.7 679.627C3297.87 556.189 3061.19 467.286 2830.5 361.457C2535.56 225.88 2264.02 63.4606 1974.21 141.764C1811.27 185.702 1676.27 297.173 1512.82 370.603C1235.91 496.435 909.864 519.003 644.825 681.166Z" stroke="#E0AAFF" stroke-width="6" stroke-miterlimit="10"/>
<path d="M538.108 641.073C342.874 760.237 186.943 943.771 114.233 1158.08C64.5057 1304.77 56.9869 1469.67 117.565 1615.42C220.095 1861.78 432.758 2038.73 665.501 2158.49C811.963 2233.67 963.241 2299.07 1118.34 2354.25C1193.53 2381.01 1268.8 2404.94 1343.48 2425.63C1699.43 2523.08 1928.84 2746.71 2191.74 3011.02C2332.29 3152.41 2487.45 3300.56 2648 3419.21C2853.06 3571.88 3198.84 3737.8 3412.61 3591.37C3443.83 3569 3472.21 3542.9 3497.11 3513.67C3533.51 3472.55 3567.26 3428.78 3612.63 3392.96C3734.13 3296.71 3920.22 3277.05 4096.23 3271.66C4377.59 3264.14 4700.39 3229.43 4879.04 2983.33C5037.28 2765.51 5022.33 2473.67 4929.71 2227.48C4868.4 2064.29 4779.15 1913.03 4665.95 1780.48C4547.53 1642.6 4395.28 1536.69 4267.8 1391.19C4025.4 1114.48 3820.08 801.355 3521.21 603.546C3321.02 471.131 3077.94 371.372 2838.53 261.611C2532.22 121.589 2244.29 -34.0771 1943.88 57.3904C1771.63 109.792 1630.31 232.034 1458.31 312.132C1165.33 449.675 818.953 469.336 538.108 641.073Z" stroke="#E0AAFF" stroke-width="6" stroke-miterlimit="10"/>
<path d="M430.62 600.982C230.089 723.138 71.7664 912.827 -1.88409 1133.12C-52.0382 1284 -58.959 1452.66 2.13166 1603.28C106.456 1860.33 322.964 2050.53 563.055 2181.92C713.825 2264.14 870.568 2334.9 1031.96 2393.57C1110.05 2421.87 1188.4 2447 1266.15 2468.29C1638.76 2569.07 1875.01 2803.64 2147.57 3078.64C2296.49 3228.84 2461.65 3386.38 2632.7 3511.27C2850.58 3671.73 3222.25 3846.88 3448.58 3682.24C3481.84 3656.66 3511.75 3626.99 3537.61 3593.94C3575.8 3548.03 3611.01 3499.13 3658.85 3459.04C3787.02 3351.42 3985.58 3327.83 4172.27 3320.56C4470.8 3309.96 4815.47 3273.03 5001.05 3006.75C5162.28 2775.43 5136.82 2468.2 5032.24 2213.29C4963.21 2044.4 4865.6 1888.68 4743.7 1752.96C4616.14 1612 4453.72 1505.57 4319.83 1354.86C4065.21 1068.49 3856.22 739.38 3548.46 526.782C3344 385.734 3094.34 275.118 2846.22 162.023C2528.89 17.8124 2224.29 -130.758 1913.71 -26.2972C1732.15 34.6527 1584.59 167.58 1403.63 254.26C1094.76 403.002 727.957 419.757 430.62 600.982Z" stroke="#E0AAFF" stroke-width="6" stroke-miterlimit="10"/>
<path d="M323.567 560.804C117.739 686.037 -43.831 881.795 -117.738 1107.9C-168.148 1262.88 -174.556 1435.3 -113.039 1590.11C-6.66406 1858.62 213.433 2061.73 461.213 2204.74C616.139 2293.97 778.278 2370.04 945.923 2432.13C1026.92 2462.05 1108.26 2488.29 1189.09 2510.17C1578.45 2614.38 1821.36 2859.89 2103.31 3145.49C2260.61 3304.66 2435.85 3471.01 2617.33 3602.57C2848.02 3770.97 3245.15 3955.36 3484.56 3771.57C3519.81 3743.41 3551.39 3710.93 3578.54 3674.89C3618.44 3624.11 3655.44 3570.17 3705.34 3525.89C3840.08 3406.81 4050.86 3379.29 4248.66 3370.14C4564.79 3356.46 4931.08 3317.4 5123.58 3030.77C5287.88 2786.11 5251.74 2464.27 5135.29 2199.78C5058.52 2025.23 4952.53 1865.07 4821.89 1726.2C4685.18 1581.99 4512.67 1475.05 4372.38 1319.3C4105.55 1023.19 3892.88 677.745 3576.32 450.701C3367.59 301.019 3111.35 179.546 2854.51 62.8613C2525.65 -86.3932 2205.16 -227.783 1883.21 -110.329C1692.51 -40.6594 1538.54 102.782 1348.52 196.13C1024.19 356.241 637.052 370.09 323.567 560.804Z" stroke="#E0AAFF" stroke-width="6" stroke-miterlimit="10"/>
<path d="M216.506 520.713C5.63684 648.938 -159.436 850.851 -233.514 1083.37C-284.351 1242.45 -290.161 1418.72 -228.131 1578.06C-119.877 1856.4 104.065 2073.18 358.766 2227.74C517.841 2323.96 685.412 2405.37 859.368 2470.94C943.271 2502.57 1027.69 2529.84 1111.59 2552.32C1517.61 2659.94 1767.44 2916.39 2059.48 3212.68C2224.98 3380.66 2410.3 3556.15 2602.29 3694.21C2845.88 3870.39 3268.73 4064.01 3520.78 3861.59C3557.82 3830.48 3590.78 3794.8 3618.87 3755.42C3660.56 3699.77 3698.67 3640.87 3751.39 3592.31C3892.79 3461.78 4115.71 3429.89 4324.45 3419.29C4657.67 3402.2 5046.25 3361.34 5245.5 3054.45C5412.97 2796.37 5366.32 2459.48 5237.64 2185.85C5153.26 2005.49 5038.95 1840.74 4899.55 1698.59C4753.87 1551.73 4570.94 1444.19 4424.24 1283.31C4145.27 977.452 3928.68 616.54 3603.49 374.279C3390.48 216.049 3127.75 83.6343 2862.11 -36.6413C2521.97 -190.512 2184.91 -324.636 1852.54 -194.359C1652.78 -116.056 1492.23 37.8151 1293.32 138.002C953.61 309.568 546.652 321.108 216.506 520.713Z" stroke="#E0AAFF" stroke-width="6" stroke-miterlimit="10"/>
<path d="M109.365 480.62C-106.802 612.179 -274.609 819.905 -349.37 1058.4C-400.635 1221.59 -405.761 1401.71 -343.304 1565.58C-233.084 1854.68 -5.38273 2084.72 256.666 2250.9C419.833 2354.11 592.813 2440.9 773.074 2510C858.579 2542.82 945.767 2571.07 1034.27 2594.63C1457.03 2705.76 1713.61 2973.07 2015.39 3280.04C2189.27 3456.91 2384.67 3641.46 2587.08 3786.02C2843.41 3970.06 3291.97 4172.83 3556.93 3951.77C3595.87 3917.73 3630.32 3878.86 3659.46 3836.11C3702.95 3775.67 3742.51 3711.65 3797.7 3658.82C3945.68 3516.91 4180.73 3481.52 4400.57 3468.62C4750.88 3448.78 5161.77 3405.53 5367.69 3078.21C5538.57 2806.72 5480.98 2454.87 5340.34 2172.09C5248.23 1986.21 5125.57 1817.14 4977.48 1671.92C4822.74 1521.47 4629.64 1413.33 4476.45 1247.32C4185.26 931.803 3965.17 554.905 3630.58 297.856C3413.3 131.077 3143.56 -12.2791 2869.72 -136.145C2518.64 -294.803 2165.34 -421.49 1822.12 -278.475C1613.31 -191.367 1446.18 -26.9824 1238.39 79.7012C883.037 262.807 455.488 271.527 109.365 480.62Z" stroke="#E0AAFF" stroke-width="6" stroke-miterlimit="10"/>
<path d="M2.30188 440.444C-219.162 574.995 -389.874 788.876 -465.148 1033.53C-516.413 1200.82 -521.454 1384.78 -458.484 1553.1C-346.299 1852.89 -114.753 2096.18 154.559 2273.98C321.751 2384.14 500.119 2476.29 686.688 2548.9C774.989 2583.3 865.159 2612.7 956.768 2636.95C1396.28 2751.41 1659.61 3029.66 1971.04 3347.23C2153.29 3533.07 2358.69 3726.69 2571.61 3877.74C2840.84 4069.57 3315.46 4282.08 3592.81 4041.79C3633.68 4004.83 3669.65 3962.81 3699.87 3916.72C3745.06 3851.41 3786.08 3782.34 3843.66 3725.32C3998.31 3571.97 4245.24 3532.64 4476.36 3517.86C4843.75 3494.95 5277.2 3449.47 5489.52 3101.98C5663.65 2817.06 5595.47 2450.08 5442.78 2158.24C5343.07 1966.75 5212.11 1793.26 5055.31 1644.91C4891.52 1491.04 4687.91 1382.56 4528.65 1211.51C4225.24 886.241 4001.39 493.444 3658.34 221.606C3436.79 46.3644 3161.16 -108.105 2877.92 -235.732C2515.22 -399.005 2145.86 -518.341 1791.7 -362.333C1573.91 -266.42 1400.29 -91.6062 1183.36 21.6596C812.457 216.135 364.574 221.862 2.30188 440.444Z" stroke="#E0AAFF" stroke-width="6" stroke-miterlimit="10"/>
<path d="M-104.837 400.352C-331.513 537.81 -505.216 757.93 -581.002 1008.57C-632.865 1180.05 -637.052 1367.6 -573.569 1540.62C-459.505 1851.18 -224.199 2107.63 52.4605 2297.15C223.672 2414.22 407.465 2511.71 600.396 2587.79C691.653 2623.82 784.979 2654.37 879.875 2679.26C1336.13 2797.14 1605.61 3086.93 1927.39 3414.42C2117.58 3609.49 2333.49 3811.83 2556.83 3969.38C2838.79 4169.07 3339.14 4390.73 3629.29 4131.8C3673.64 4092.56 3708.33 4046.32 3740.88 3997.25C3787.87 3927.07 3830.34 3852.95 3890.4 3791.66C4051.63 3627.02 4311.03 3583.68 4552.92 3567.01C4937.4 3541.36 5393.32 3493.58 5612.39 3125.57C5789.85 2827.23 5710.82 2445.29 5546.09 2144.22C5438.68 1947.07 5299.31 1769.13 5133.66 1617.64C4960.81 1460.78 4747.38 1351.61 4581.28 1175.35C4265.66 840.336 4037.96 431.639 3686.2 145.012C3460.21 -39.1196 3177.65 -204.018 2885.87 -335.149C2511.81 -503.21 2126.47 -615.108 1761.29 -446.364C1534.61 -341.561 1354.25 -156.403 1128.42 -36.0421C741.887 169.375 273.241 172.282 -104.837 400.352Z" stroke="#E0AAFF" stroke-width="6" stroke-miterlimit="10"/>
<path d="M-211.9 360.261C-443.959 500.71 -620.566 726.9 -696.865 983.693C-749.07 1159.28 -752.744 1351.27 -688.321 1528.14C-572.633 1849.39 -333.397 2119.09 -49.6464 2320.23C125.639 2444.21 314.915 2547.11 514.267 2626.77C608.307 2664.34 704.62 2695.95 802.632 2721.41C1275.55 2842.79 1551.87 3143.44 1883.38 3481.7C2081.86 3685.66 2307.77 3897.15 2541.28 4061.19C2836.48 4268.66 3362.2 4499.46 3665.26 4221.98C3711.49 4179.93 3747.54 4129.92 3781.29 4077.95C3830.08 4002.98 3873.99 3924.07 3936.54 3858.25C4104.35 3682.16 4375.88 3634.88 4628.61 3616.33C5030.19 3587.35 5508.66 3537.77 5733.97 3149.42C5914.76 2837.58 5824.96 2440.59 5648.53 2130.46C5533.43 1927.68 5385.69 1745.28 5211.24 1590.63C5029.33 1430.6 4805.73 1320.84 4633.14 1139.44C4305.39 794.774 4073.84 370.091 3713.37 68.6759C3482.67 -123.833 3194.48 -299.93 2893.9 -434.652C2508.64 -607.414 2107.32 -711.875 1731.04 -530.394C1495.48 -416.7 1308.44 -221.199 1073.65 -94.4269C671.308 122.702 182.669 122.616 -211.9 360.261Z" stroke="#E0AAFF" stroke-width="6" stroke-miterlimit="10"/>
<path d="M-318.955 319.913C-556.945 464.257 -732.878 691.882 -812.635 958.647C-865.182 1138.16 -868.343 1333.66 -804.091 1515.49C-686.268 1847.51 -443.187 2130.37 -152.002 2343.14C27.2131 2474 221.863 2582.27 427.547 2665.5C524.401 2704.67 623.728 2737.43 724.883 2763.55C1214.55 2888.27 1497.7 3199.52 1838.87 3548.8C2045.72 3761.66 2281.71 3982.2 2525.99 4152.74C2833.58 4367.99 3385.27 4608.03 3701.06 4311.91C3749.25 4266.95 3786.51 4213.78 3821.71 4158.04C3872.12 4078.2 3917.57 3994 3982.51 3924.16C4156.98 3736.69 4440.65 3685.58 4704.66 3665.06C5123.32 3633 5624.52 3581.37 5856.07 3172.59C6040.28 2847.75 5940.14 2434.95 5750.8 2116.1C5628.15 1907.72 5472.01 1721 5288.65 1563.44C5097.69 1400.34 4863.84 1289.9 4684.84 1103.46C4344.87 749.126 4109.47 308.458 3740.37 -7.83162C3505.66 -208.889 3210.63 -395.927 2901.33 -534.24C2505.06 -711.619 2087.93 -808.472 1700.11 -614.424C1455.66 -491.755 1261.97 -285.996 1018.12 -152.812C600.737 75.9423 91.6767 73.0359 -318.955 319.913Z" stroke="#E0AAFF" stroke-width="6" stroke-miterlimit="10"/>
<path d="M-426.1 279.99C-669.225 427.614 -848.416 660.83 -928.496 933.854C-981.384 1117.73 -984.033 1316.91 -919.012 1503.18C-799.394 1845.97 -551.614 2141.48 -253.85 2366.56C-70.5389 2504.19 129.553 2617.88 341.591 2704.91C441.279 2745.68 543.652 2779.56 647.984 2806.29C1154.31 2934.51 1444.38 3256.79 1795.12 3616.59C2010.35 3838.25 2256.5 4067.86 2511.12 4244.89C2831.61 4468.09 3408.85 4717.19 3737.55 4402.53C3787.61 4354.74 3826.4 4298.24 3862.63 4239.59C3914.84 4154.79 3961.66 4065.55 4029.16 3991.69C4210.21 3792.77 4506.09 3737.72 4781.04 3715.32C5216.79 3680.19 5740.72 3626.5 5978.5 3197.38C6166.47 2858.6 6055.4 2431.27 5853.67 2103.19C5723.46 1888.96 5558.92 1697.6 5366.66 1536.77C5166.64 1370.42 4922.36 1259.55 4737.21 1067.98C4385.02 703.903 4145.7 247.335 3767.96 -83.7434C3510.17 -307.999 3220.97 -493.297 2909.53 -633.745C2501.72 -815.826 2068.7 -905.412 1670.03 -698.371C1416.79 -566.897 1216.26 -350.794 963.519 -211.114C530.16 29.266 0.765297 23.3676 -426.1 279.99Z" stroke="#E0AAFF" stroke-width="6" stroke-miterlimit="10"/>
<path d="M-533.157 239.899C-781.47 390.787 -963.933 629.645 -1044.27 908.979C-1097.58 1097.04 -1099.72 1299.9 -1034.1 1490.27C-912.602 1843.74 -661.404 2152.68 -356.037 2389.13C-168.76 2533.54 36.7683 2652.57 255.211 2743.12C357.71 2785.46 463.099 2820.42 570.575 2847.75C1093.65 2979.39 1390.81 3312.52 1750.95 3683.01C1974.55 3913.82 2230.62 4152.32 2495.83 4335.85C2829.05 4566.65 3432.09 4825.07 3773.6 4491.86C3825.64 4441.25 3865.79 4381.41 3903.13 4319.44C3957.13 4229.85 4005.66 4135.56 4075.38 4057.17C4263.35 3846.88 4570.94 3787.9 4857.09 3763.62C5310.52 3725.41 5856.75 3669.59 6100.69 3220.2C6291.82 2867.92 6169.64 2425.2 5956.38 2088.48C5818.53 1868.67 5645.71 1672.87 5444.75 1508.82C5235.68 1339.73 4981.06 1228.35 4789.59 1031.56C4425.09 657.743 4181.93 185.702 3795.56 -160.507C3552.14 -378.661 3244.21 -587.925 2917.48 -733.248C2498.3 -919.602 2049.65 -1002.18 1639.62 -782.401C1377.66 -641.951 1170.37 -415.248 908.582 -269.071C459.587 -17.4927 -90.2285 -26.2121 -533.157 239.899Z" stroke="#E0AAFF" stroke-width="6" stroke-miterlimit="10"/>
<path d="M-640.216 199.722C-893.719 353.937 -1079.47 598.451 -1160.13 884.105C-1213.7 1076.19 -1215.66 1283.06 -1149.28 1478.22C-1026.41 1842.63 -770.856 2164.65 -458.14 2412.64C-266.981 2563.98 -56.0017 2688.4 168.914 2782.44C274.333 2826.38 382.855 2862.47 493.592 2890.41C1033.33 3025.47 1337.07 3369.54 1706.86 3750.71C1938.75 3990.07 2204.81 4237.97 2480.53 4428C2826.66 4666.84 3455.25 4934.24 3809.57 4582.39C3863.57 4528.87 3905.1 4465.87 3943.72 4400.48C3999.42 4306.02 4049.15 4206.68 4121.6 4124.11C4315.81 3902.36 4635.96 3839.45 4933.3 3813.29C5403.91 3772 5972.78 3714.3 6222.87 3244.31C6417.59 2878.61 6284.3 2421.36 6059.16 2075.06C5913.56 1849.8 5732.37 1649.67 5522.67 1482.49C5304.46 1309.47 5040.02 1197.49 4841.79 995.233C4465.08 611.754 4218.07 123.898 3822.99 -237.27C3575.21 -463.973 3260.78 -683.923 2925.85 -833.092C2494.72 -1024.15 2030.51 -1099.12 1609.2 -866.43C1338.52 -717.005 1124.32 -480.301 853.557 -327.199C389.012 -64.166 -181.139 -75.8772 -640.216 199.722Z" stroke="#E0AAFF" stroke-width="6" stroke-miterlimit="10"/>
<path d="M-747.357 159.63C-1005.98 317.155 -1194.98 567.256 -1275.98 859.143C-1329.9 1055.76 -1331.18 1266.05 -1264.36 1466.08C-1139.53 1840.84 -880.218 2176.28 -560.24 2435.72C-365.197 2593.89 -148.801 2723.72 82.5358 2821.33C190.644 2866.75 302.037 2903.9 415.757 2932.46C972.237 3070.86 1282.9 3425.79 1662.6 3817.73C1902.87 4065.64 2179.01 4322.94 2465.07 4519.47C2823.92 4766.09 3478.32 5042.63 3845.55 4672.23C3901.43 4615.89 3944.32 4549.56 3984.13 4480.83C4041.64 4381.5 4092.81 4277.12 4167.66 4190.18C4368.53 3957.07 4700.9 3890.22 5009 3862.18C5496.87 3817.82 6088.47 3758.07 6344.71 3267.73C6542.93 2888.44 6398.54 2416.31 6161.44 2060.87C6008.32 1829.8 5818.81 1625.06 5600.26 1454.62C5373.07 1278.87 5098.46 1166.29 4893.66 959.244C4504.81 566.019 4253.27 62.8624 3850.16 -313.693C3597.68 -548.602 3277.19 -779.75 2933.03 -932.595C2491.56 -1128.35 2011.55 -1195.71 1578.79 -950.461C1299.39 -792.06 1078.27 -545.097 798.62 -385.328C318.44 -110.926 -272.132 -125.544 -747.357 159.63Z" stroke="#E0AAFF" stroke-width="6" stroke-miterlimit="10"/>
<path d="M-3.76158 2860.32C107.246 2907.43 221.775 2945.75 338.773 2974.95C911.914 3116.85 1229.41 3482.55 1618.77 3885.18C1867.49 4142.31 2153.55 4408.43 2450.12 4611.79C2821.96 4866.28 3501.9 5151.96 3881.86 4762.93C4023.18 4618.29 4083.41 4411.5 4214.22 4257.38C4421.68 4012.89 4766.18 3942.03 5085.73 3912.02C5590.77 3864.66 6205.01 3802.86 6467.49 3292.09C6669.21 2899.38 6513.71 2412.3 6264.73 2047.62C6103.93 1811 5906.08 1601.85 5678.78 1428.21C5442.44 1249.2 5157.58 1136.11 4946.46 923.854C4545.31 520.713 4289.93 1.39935 3877.84 -389.603C3291.54 -946.273 2338.44 -1493.54 1548.45 -1034.49C1260.34 -867.029 1032.3 -609.894 743.68 -443.543C248.12 -157.686 -363.043 -175.124 -854.075 119.538C-1298.37 385.905 -1544.78 950.097 -1379.2 1453.08C-1174.82 2075.49 -616.206 2601.73 -3.76158 2860.32Z" stroke="#E0AAFF" stroke-width="6" stroke-miterlimit="10"/>
</g>
</g>
</svg>
