<svg width="589" height="589" viewBox="0 0 589 589" fill="none" xmlns="http://www.w3.org/2000/svg">
<mask id="mask0_149_2267" style="mask-type:alpha" maskUnits="userSpaceOnUse" x="0" y="0" width="589" height="589">
<rect width="589" height="589" rx="160" fill="#1A2DD8"/>
</mask>
<g mask="url(#mask0_149_2267)">
<rect width="589" height="589" rx="160" fill="#F8EDFF"/>
<g opacity="0.5">
<path d="M892.122 757.139C934.301 796.034 970.244 841.996 1016.75 875.591C1063.26 909.186 1125.29 929.189 1178.38 907.448C1224.6 888.528 1254.34 841.797 1266.75 793.356C1300.93 660.856 1206.95 509.579 1073.09 481.34C1021.08 470.37 964.861 475.442 917.128 452.219C856.436 422.727 821.661 353.314 759.403 327.327C698.426 301.853 627.595 325.276 571.859 360.808C526.29 389.844 484.965 428.198 462.636 477.38C447.314 511.117 442.159 552.463 461.212 584.234C487.186 627.546 545.685 636.636 596.124 634.812C716.881 630.395 802.123 674.163 892.122 757.139Z" stroke="#E0AAFF" stroke-width="2" stroke-miterlimit="10"/>
<path d="M536.202 347.416C488.896 377.421 446.574 417.854 424.046 469.059C408.609 504.164 403.767 546.707 422.878 580.045C449.649 626.833 509.231 640.596 562.09 642.477C595.205 643.508 628.146 647.707 660.462 655.014C675.841 658.548 690.822 662.774 705.404 667.694C768.374 688.752 821.775 727.334 877.426 779.536C896.309 797.231 914.707 816.094 933.362 834.017C958.994 858.807 988.956 883.826 1017.15 896.705C1021.62 898.757 1025.92 900.637 1030.28 902.404C1036.58 904.912 1042.98 907.134 1049.9 909.385C1070.22 916.127 1090.87 921.833 1111.76 926.482C1148.16 934.09 1186.78 932.95 1219.11 915.369C1265.36 890.265 1292.42 840.115 1300.96 788.739C1306.66 753.814 1304.9 718.077 1295.8 683.879C1286.49 648.489 1269.77 615.037 1248.73 583.607C1208.63 523.769 1151.32 474.217 1082.37 455.866C1029.06 441.619 970.586 443.442 920.033 419.023C855.582 387.964 815.965 318.807 749.549 299.346C723.746 291.737 697.002 293.504 669.547 298.035C623.665 305.643 576.302 322.113 536.202 347.416Z" stroke="#E0AAFF" stroke-width="2" stroke-miterlimit="10"/>
<path d="M500.515 334.052C451.386 364.94 408.124 407.511 385.453 460.739C369.903 497.241 365.318 540.98 384.485 575.886C412.083 626.15 472.775 644.586 528.055 650.171C562.974 653.62 597.6 659.572 631.667 667.98C648.053 672.045 664.05 676.652 679.657 681.8C748.181 703.997 803.946 746.084 862.9 801.904C884.574 822.506 906.361 844.39 928.405 864.592C958.367 891.919 996.758 919.9 1029.31 926.825C1034.44 927.907 1039.19 928.734 1043.98 929.361C1050.84 930.215 1057.74 930.757 1065.48 931.583C1086.13 933.72 1111.85 938.906 1137.25 942.981C1179.4 949.506 1224.57 946.799 1259.97 923.377C1306.37 892.688 1330.64 838.605 1335.33 784.209C1338.35 747.248 1333.74 710.061 1321.78 674.961C1309.47 638.488 1289.34 604.865 1266.16 571.754C1221.98 508.638 1163.63 453.416 1091.54 430.506C1036.77 413.039 976.025 411.529 922.424 385.884C854.214 353.258 809.271 284.7 739.181 271.307C710.33 265.808 681.394 271.877 650.892 278.63C600.168 290.057 545.913 305.472 500.515 334.052Z" stroke="#E0AAFF" stroke-width="2" stroke-miterlimit="10"/>
<path d="M464.802 320.659C413.907 352.545 369.705 397.281 346.835 452.447C331.171 490.316 326.899 535.28 346.095 571.725C374.575 625.494 436.207 648.66 494.023 657.893C530.683 663.741 567.023 671.445 602.903 680.973C620.22 685.57 637.213 690.538 653.883 695.876C727.933 719.213 786.118 764.861 848.063 824.358C872.557 847.894 897.676 872.799 923.195 895.167C957.371 925.086 1004.39 956.06 1041.22 956.857C1046.61 956.973 1052 956.764 1057.37 956.231C1064.83 955.49 1072.2 954.35 1080.78 953.752C1103.56 952.07 1133.38 955.946 1162.49 959.28C1210.36 964.751 1262.17 960.676 1300.56 931.155C1347.27 895.338 1368.63 836.952 1369.43 779.45C1369.82 740.494 1362.4 701.853 1347.61 665.814C1332.26 628.287 1308.74 594.578 1283.42 559.643C1235.17 493.28 1175.73 432.415 1100.54 404.918C1044.61 384.459 981.58 379.529 925.046 352.687C853.076 318.494 802.58 250.933 729.043 243.268C697.06 239.934 666.073 250.249 632.666 259.225C576.644 274.498 515.582 289.002 464.802 320.659Z" stroke="#E0AAFF" stroke-width="2" stroke-miterlimit="10"/>
<path d="M429.114 307.296C376.425 340.121 331.255 386.881 308.243 444.07C292.436 483.335 288.307 529.553 307.73 567.537C336.866 624.811 399.694 652.393 459.987 665.529C498.977 674.078 537.14 683.424 574.137 693.881C592.421 699.048 610.459 704.386 628.25 709.895C707.995 734.372 768.345 783.611 833.48 846.669C860.793 873.141 889.216 901.122 918.238 925.628C956.772 958.14 1012.22 992.134 1053.38 986.777C1059.35 985.982 1065.24 984.715 1071.01 982.987C1079.07 980.622 1086.93 977.801 1096.3 975.778C1121.39 970.307 1155.17 972.929 1187.95 975.579C1241.58 980.024 1299.99 974.752 1341.4 938.963C1388.54 898.244 1406.91 835.3 1403.74 774.72C1401.53 733.78 1391.32 693.672 1373.67 656.668C1355.33 618.086 1328.39 584.092 1300.9 547.533C1248.61 477.95 1188.09 411.5 1109.8 379.416C1052.55 355.908 987.331 347.53 927.807 319.577C852.078 283.845 795.886 217.595 719.017 215.315C683.843 214.29 650.835 228.622 614.437 239.878C553.061 258.798 485.249 272.333 429.114 307.296Z" stroke="#E0AAFF" stroke-width="2" stroke-miterlimit="10"/>
<path d="M393.43 293.932C338.947 327.727 292.837 376.566 269.625 435.835C253.733 476.468 249.917 523.912 269.34 563.434C299.245 624.241 363.155 656.383 425.983 673.28C466.34 684.165 506.383 695.335 545.401 706.904C564.654 712.603 583.641 718.301 602.362 724C687.604 749.645 750.461 802.474 818.814 869.18C848.946 898.558 880.702 929.617 913.198 956.26C955.919 991.393 1019.94 1028.44 1065.43 1016.9C1072.02 1015.18 1078.44 1012.85 1084.59 1009.94C1093.41 1005.45 1102.48 1001.47 1111.76 998.032C1139.05 988.743 1176.9 989.969 1213.35 992.077C1272.71 995.496 1337.87 989.228 1382.13 946.97C1429.83 901.379 1445.04 833.818 1438.01 770.304C1433.16 727.388 1420.15 685.798 1399.67 647.777C1378.28 608.17 1347.95 573.977 1318.33 535.737C1261.97 462.905 1200.37 390.928 1118.97 354.027C1060.41 327.499 992.801 315.645 930.457 286.381C850.826 249.11 788.853 184.399 708.765 187.277C670.374 188.645 635.371 206.967 596.011 220.445C529.68 243.212 454.919 255.749 393.43 293.932Z" stroke="#E0AAFF" stroke-width="2" stroke-miterlimit="10"/>
<path d="M357.715 280.454C301.494 315.246 254.388 366.137 231.005 427.457C214.999 469.458 211.439 518.127 231.005 559.188C261.622 623.528 326.671 660.172 391.948 680.916C433.672 694.166 475.567 707.131 516.636 719.812C536.857 726.023 556.879 732.15 576.644 738.048C667.44 764.804 732.489 821.224 804.032 891.52C836.927 923.861 872.015 957.969 908.014 986.777C955.121 1024.5 1027.63 1064.6 1077.36 1046.87C1084.57 1044.22 1091.49 1040.83 1098.01 1036.76C1107.31 1030.55 1117.03 1024.99 1127.09 1020.12C1156.56 1007.04 1198.46 1006.95 1238.59 1008.43C1303.69 1010.8 1375.72 1003.5 1422.74 954.806C1471.16 904.713 1483.12 832.28 1472.13 765.517C1464.67 720.662 1448.86 677.609 1425.5 638.602C1401.18 597.997 1367.35 563.633 1335.68 523.683C1275.24 447.631 1212.53 370.155 1128.08 328.524C1068.27 298.975 998.297 283.617 933.049 253.156C849.772 214.318 782.102 151.488 698.711 159.267C657.101 163.142 620.162 185.453 577.783 201.068C506.07 227.767 424.587 239.194 357.715 280.454Z" stroke="#E0AAFF" stroke-width="2" stroke-miterlimit="10"/>
<path d="M322.028 267.175C264.013 302.965 215.938 355.908 192.413 419.222C176.265 462.62 172.933 512.542 192.584 555.113C223.913 622.987 290.13 664.133 357.771 688.695C400.862 704.311 444.637 719.071 487.727 732.862C508.917 739.615 529.964 746.112 550.726 752.21C647.104 780.106 714.461 840.173 789.193 914.03C824.908 949.307 863.243 986.435 902.802 1017.44C954.067 1057.76 1035.12 1100.93 1089.24 1076.99C1097.1 1073.39 1104.54 1068.94 1111.42 1063.71C1121.19 1056.5 1130.5 1048.64 1142.35 1042.37C1174.05 1025.47 1219.99 1024.08 1263.82 1024.93C1334.65 1026.27 1413.66 1018.09 1463.33 962.813C1512.46 908.161 1521.14 830.769 1506.05 760.986C1495.98 714.209 1477.39 669.688 1451.19 629.655C1423.97 587.91 1386.94 553.346 1352.99 511.687C1288.48 432.387 1224.66 349.468 1137.14 303.05C1075.88 270.566 1003.77 251.76 935.583 219.988C848.575 179.583 775.096 118.747 688.486 131.256C643.658 137.725 604.754 163.854 559.356 181.692C482.544 212.067 394.255 222.638 322.028 267.175Z" stroke="#E0AAFF" stroke-width="2" stroke-miterlimit="10"/>
<path d="M286.342 253.812C226.533 290.57 177.518 345.564 153.794 410.931C137.56 455.695 134.427 506.872 154.221 550.953C186.262 622.389 253.618 668.008 323.822 696.275C368.309 714.255 413.934 730.81 459.076 745.713C481.234 753.008 503.24 759.827 525.094 766.172C627.025 795.35 696.66 858.893 774.611 936.427C813.117 974.667 854.869 1014.84 897.846 1048.01C953.497 1090.95 1043.1 1137.17 1101.4 1107.02C1109.9 1102.48 1117.84 1096.96 1125.06 1090.58C1135.43 1081.75 1145.23 1072.2 1157.9 1064.51C1191.79 1043.82 1241.69 1041.26 1289.31 1041.26C1365.84 1041.63 1451.91 1032.71 1504.17 970.649C1554.09 911.494 1559.45 829.174 1540.54 756.313C1527.86 707.616 1506.48 661.616 1477.42 620.536C1446.98 577.795 1406.45 543.031 1370.39 499.634C1301.81 417.228 1236.85 328.895 1146.28 277.604C1083.62 242.186 1009.29 219.704 938.232 186.849C847.436 144.877 768.289 86.1496 678.347 103.275C630.329 112.336 589.488 142.255 541.071 162.287C459.019 196.623 363.923 206.083 286.342 253.812Z" stroke="#E0AAFF" stroke-width="2" stroke-miterlimit="10"/>
<path d="M250.571 240.561C189.024 278.317 139.013 335.391 115.146 402.781C98.7697 448.914 95.8647 501.344 115.773 546.935C148.525 621.933 217.078 672.026 289.731 704.225C335.613 724.57 383.09 742.921 430.225 758.963C453.371 766.808 476.383 773.999 499.262 780.533C606.776 810.709 678.689 877.985 759.859 958.995C801.155 1000.2 846.268 1043.4 892.72 1078.67C952.529 1124.26 1050.67 1173.53 1113.39 1137.14C1122.52 1131.63 1130.96 1125.05 1138.53 1117.54C1149.5 1107.11 1159.78 1095.85 1173.28 1086.76C1209.37 1062.26 1263.42 1058.27 1314.6 1057.81C1396.88 1057.16 1490.07 1047.3 1544.84 978.713C1595.7 914.971 1597.7 827.549 1574.91 751.754C1559.64 701.144 1535.46 653.668 1503.51 611.561C1470.08 567.708 1426.13 532.802 1387.91 487.723C1315.28 401.955 1249.15 308.208 1155.57 252.102C1091.6 213.777 1014.99 187.704 941.023 153.653C846.468 110.113 761.596 53.6086 668.351 75.2359C617.086 87.1182 574.223 120.656 522.872 142.911C435.494 181.036 333.62 189.528 250.571 240.561Z" stroke="#E0AAFF" stroke-width="2" stroke-miterlimit="10"/>
<path d="M214.942 227.055C151.629 265.808 100.649 324.905 76.5834 394.318C60.0932 441.847 57.4161 495.531 77.4663 542.632C110.902 621.163 180.623 675.731 255.754 711.805C303.194 734.483 351.857 754.507 401.517 771.786C425.612 780.163 449.706 787.771 473.573 794.581C586.64 825.925 660.832 896.82 745.248 981.392C789.307 1025.53 837.696 1071.89 887.65 1109.28C951.731 1157.55 1058.53 1209.8 1125.41 1167.2C1135.19 1160.71 1144.15 1153.06 1152.09 1144.41C1163.63 1132.36 1174.39 1119.45 1188.69 1108.9C1227 1080.64 1285.1 1075.28 1339.98 1074.23C1427.98 1072.55 1528.35 1061.92 1585.56 986.606C1637.31 918.476 1635.83 826.21 1608.95 747.252C1591.12 694.679 1564.17 645.66 1529.34 602.443C1492.86 557.535 1445.53 522.43 1405.17 475.642C1328.47 386.625 1261.17 287.578 1164.57 226.542C1099.29 185.396 1020.4 155.762 943.5 120.486C845.186 75.2932 754.675 21.1535 658.069 47.2545C603.757 61.9007 558.758 99.0576 504.275 123.534C411.969 165.478 303.288 173.001 214.942 227.055Z" stroke="#E0AAFF" stroke-width="2" stroke-miterlimit="10"/>
<path d="M179.369 213.691C114.291 253.412 62.3144 314.59 38.0775 386.026C21.5019 434.923 18.9956 489.889 39.1883 538.472C73.3648 620.593 144.253 679.577 221.834 719.498C270.654 744.558 321.08 766.357 372.78 784.75C397.843 793.669 422.934 801.648 447.826 808.543C566.476 841.027 642.946 915.569 730.58 1003.67C777.431 1050.8 829.151 1100.19 882.666 1139.74C951.019 1190.63 1066.28 1245.93 1137.54 1197.12C1147.94 1189.67 1157.4 1180.97 1165.7 1171.22C1177.84 1157.52 1189.09 1142.93 1204.21 1130.99C1244.71 1098.9 1306.74 1092.35 1365.41 1090.55C1459.2 1088.05 1566.8 1076.48 1626.35 994.442C1679.09 921.838 1674.11 824.557 1643.24 742.493C1622.8 688.095 1593.05 637.676 1555.32 593.495C1515.84 547.533 1465.09 512.228 1422.6 463.731C1341.8 371.494 1273.36 267.118 1173.74 201.182C1107.01 157.044 1025.98 123.791 946.177 87.2036C844.075 40.5295 748.096 -11.3591 647.958 19.1301C590.542 36.5973 543.435 77.3445 486.104 104.044C388.444 149.892 272.984 156.445 179.369 213.691Z" stroke="#E0AAFF" stroke-width="2" stroke-miterlimit="10"/>
<path d="M143.54 200.327C76.6964 241.046 23.9221 304.275 -0.628031 377.706C-17.3461 427.999 -19.653 484.219 0.710555 534.426C35.4852 620.109 107.655 683.51 187.685 727.306C237.942 754.714 290.189 778.299 343.986 797.858C370.017 807.29 396.133 815.667 422.051 822.762C546.254 856.358 625.003 934.547 715.855 1026.21C765.497 1076.28 820.549 1128.79 877.567 1170.42C950.193 1223.91 1074.08 1282.29 1149.53 1227.41C1160.61 1218.89 1170.58 1209 1179.2 1197.98C1191.93 1182.68 1203.67 1166.38 1219.62 1153.01C1262.34 1117.14 1328.53 1109.28 1390.76 1106.85C1490.27 1103.32 1605.16 1091.01 1667.02 1002.25C1720.76 925.143 1712.27 822.734 1677.41 737.763C1654.4 681.467 1621.87 629.56 1581.23 584.32C1538.71 537.332 1484.57 501.857 1439.94 451.621C1355.07 356.164 1285.41 246.46 1182.82 175.594C1114.67 128.578 1031.45 91.706 948.74 54.0078C842.964 5.93743 741.431 -43.5861 637.904 -8.76576C577.383 11.5509 528.197 55.8599 467.876 84.7534C364.919 134.334 242.652 139.919 143.54 200.327Z" stroke="#E0AAFF" stroke-width="2" stroke-miterlimit="10"/>
<path d="M107.855 186.935C39.246 228.679 -14.6106 293.932 -39.2462 369.3C-56.0497 420.96 -58.1857 478.434 -37.6798 530.038C-2.2216 619.539 71.1441 687.242 153.738 734.913C205.379 764.657 259.426 790.012 315.307 810.709C342.307 820.682 369.42 829.43 396.363 836.724C526.148 871.459 607.118 953.296 701.104 1048.5C753.536 1101.55 811.95 1157 872.442 1200.86C949.34 1256.99 1081.72 1318.45 1161.52 1257.19C1173.27 1247.8 1183.8 1236.98 1192.85 1224.96C1206.15 1208.04 1218.48 1190.06 1235.11 1175.3C1280.03 1135.6 1350.29 1126.43 1416.22 1123.38C1521.6 1118.82 1643.69 1105.8 1707.86 1010.26C1762.63 928.705 1750.58 821.423 1711.76 733.261C1686.17 675.076 1650.84 621.689 1607.3 575.401C1561.73 527.331 1504.22 491.684 1457.46 439.767C1368.52 341.062 1297.63 225.915 1192.11 150.234C1122.53 100.34 1037.12 59.8488 951.504 20.9537C841.883 -28.7978 735.052 -75.9278 627.738 -36.7762C564.17 -13.5532 512.848 34.2607 449.507 65.3768C341.395 118.747 212.35 123.363 107.855 186.935Z" stroke="#E0AAFF" stroke-width="2" stroke-miterlimit="10"/>
<path d="M72.169 173.571C1.87919 216.313 -53.1451 283.617 -77.8376 361.122C-94.7835 414.15 -96.7202 472.906 -76.0434 526.02C-39.9586 618.798 34.6887 691.06 119.589 742.579C172.614 774.654 228.471 801.79 286.456 823.646C314.424 834.189 342.563 843.278 370.53 850.772C505.87 886.647 589.147 972.131 686.493 1070.89C741.66 1126.88 803.434 1185.38 867.429 1231.4C948.627 1290.13 1089.58 1354.67 1173.59 1287.2C1185.94 1276.83 1196.93 1264.93 1206.29 1251.8C1220.19 1233.26 1232.89 1213.62 1250.46 1197.44C1297.6 1153.93 1371.9 1143.3 1441.48 1139.76C1552.56 1134.07 1682.08 1120.45 1748.5 1018.15C1804.32 932.125 1788.77 819.827 1745.88 728.616C1717.75 668.497 1679.65 613.58 1633.18 566.197C1584.62 517.244 1523.65 481.398 1474.75 427.771C1381.76 325.817 1309.56 205.513 1201.16 124.76C1130.16 72.0161 1042.58 27.878 954.038 -12.2138C840.658 -63.504 728.302 -108.212 617.513 -64.7863C550.926 -38.6852 497.411 12.605 431.108 46.0006C317.87 103.189 182.218 107.036 72.169 173.571Z" stroke="#E0AAFF" stroke-width="2" stroke-miterlimit="10"/>
<path d="M36.4548 160.207C-35.6008 204.06 -91.5365 273.301 -116.457 352.801C-133.545 407.197 -135.254 467.235 -114.435 521.86C-77.695 618.228 -1.79449 694.907 85.5551 750.3C139.944 784.703 197.604 813.633 257.691 836.667C286.193 847.607 315.255 857.023 344.756 864.877C485.677 901.92 571.204 991.022 671.797 1093.35C729.755 1152.3 794.89 1213.82 862.36 1262.01C947.801 1323.35 1097.32 1390.94 1185.64 1317.26C1198.62 1305.91 1210.11 1292.95 1219.82 1278.7C1234.32 1258.56 1247.5 1237.22 1265.9 1219.61C1315.23 1172.3 1393.58 1160.51 1466.86 1156.21C1583.63 1149.59 1720.59 1135.18 1789.23 1026.07C1846.19 935.572 1826.99 818.288 1780.11 724.028C1749.41 662.072 1708.52 605.714 1659.16 557.307C1607.58 507.156 1543.21 471.111 1492.15 415.774C1395.09 310.601 1321.72 184.968 1210.19 99.2852C1137.77 43.6923 1047.85 -4.09309 956.573 -45.3817C839.547 -98.2676 721.78 -140.497 607.374 -92.8252C537.768 -63.7892 482.06 -8.99418 412.796 26.567C294.345 87.6024 151.829 90.5089 36.4548 160.207Z" stroke="#E0AAFF" stroke-width="2" stroke-miterlimit="10"/>
<path d="M0.767288 146.815C-73.0541 191.665 -129.958 262.959 -155.049 344.51C-172.138 400.274 -173.818 461.594 -152.828 517.7C-115.433 617.63 -38.251 698.726 51.5195 757.994C107.25 794.712 166.706 825.429 228.896 849.633C258.33 861.101 288.386 870.9 318.923 878.982C465.426 917.136 553.203 1009.89 657.014 1115.74C717.763 1177.69 786.23 1242.23 857.204 1292.58C946.946 1356.52 1105.15 1427.36 1197.6 1347.26C1211.23 1334.94 1223.22 1320.94 1233.29 1305.57C1248.35 1283.8 1262.03 1260.78 1281.22 1241.77C1332.77 1190.66 1415.08 1177.55 1492.12 1172.62C1614.58 1164.98 1759.07 1149.82 1829.84 1033.99C1887.88 939.02 1865.16 816.693 1814.26 719.413C1781.02 655.584 1737.37 597.753 1685.1 548.303C1630.51 497.013 1562.64 460.853 1509.55 403.836C1408.41 295.414 1333.8 164.481 1219.45 73.8686C1145.6 15.4548 1053.72 -36.0349 959.306 -78.5773C838.407 -133.002 715.285 -172.78 597.234 -120.778C524.637 -88.8068 466.765 -30.5355 394.453 7.21984C270.819 72.045 121.525 73.9541 0.767288 146.815Z" stroke="#E0AAFF" stroke-width="2" stroke-miterlimit="10"/>
<path d="M-34.9455 133.451C-110.504 179.27 -168.405 252.643 -193.667 336.189C-210.955 393.349 -212.35 455.866 -191.189 513.539C-153.168 617.06 -74.7327 702.544 17.4871 765.716C74.5575 804.74 135.822 837.237 200.132 862.598C230.551 874.607 261.66 884.788 293.292 893.087C445.378 932.381 535.205 1028.98 642.463 1138.14C705.86 1203.16 777.83 1270.61 852.278 1323.13C946.264 1389.69 1113.05 1463.58 1209.77 1377.27C1224.55 1364.19 1236.11 1348.77 1246.96 1332.42C1262.62 1309.02 1276.78 1284.32 1296.8 1263.89C1350.54 1209.01 1437.01 1194.56 1517.64 1189C1645.8 1180.45 1797.77 1164.53 1870.8 1041.86C1929.95 942.411 1903.61 815.097 1848.7 714.74C1812.89 649.024 1766.44 589.709 1711.22 539.213C1653.6 486.926 1582.46 450.538 1527.09 391.782C1421.89 280.112 1345.99 143.88 1228.73 48.3374C1153.4 -13.0399 1059.22 -68.0058 961.957 -111.716C837.269 -167.737 708.822 -205.036 587.097 -148.788C511.538 -113.854 451.416 -52.1344 376.142 -12.014C247.296 56.4584 91.0806 57.4272 -34.9455 133.451Z" stroke="#E0AAFF" stroke-width="2" stroke-miterlimit="10"/>
<path d="M-70.633 120.087C-147.986 166.903 -206.855 242.3 -232.288 327.898C-249.69 386.425 -250.914 450.424 -229.44 509.38C-190.878 616.462 -111.132 706.362 -16.5486 773.41C41.8801 814.738 104.972 849.035 171.423 875.592C202.769 888.115 234.873 898.65 267.544 907.135C425.184 947.597 517.289 1047.81 627.794 1160.57C693.954 1228.55 769.256 1299.05 847.093 1353.73C945.493 1422.89 1120.73 1499.82 1221.75 1407.33C1237.16 1393.31 1249.18 1376.64 1260.43 1359.32C1276.69 1334.33 1291.33 1308.02 1312.18 1286.08C1368.12 1227.39 1458.63 1211.63 1542.87 1205.44C1676.73 1195.78 1836.22 1179.26 1911.32 1049.81C1971.59 945.859 1941.66 813.53 1882.84 710.152C1844.48 642.559 1795.23 581.761 1737.08 530.209C1676.44 476.867 1601.91 440.28 1544.38 379.815C1435.13 264.925 1357.95 123.364 1237.79 22.892C1160.89 -41.2778 1064.83 -99.9766 964.632 -144.884C836.214 -202.471 702.441 -237.292 577.013 -176.798C498.492 -138.9 436.149 -73.7331 357.884 -31.4756C223.77 40.9005 60.8898 40.872 -70.633 120.087Z" stroke="#E0AAFF" stroke-width="2" stroke-miterlimit="10"/>
<path d="M-106.318 106.638C-185.648 154.752 -244.292 230.627 -270.878 319.549C-288.394 379.387 -289.447 444.554 -268.03 505.162C-228.756 615.835 -147.729 710.124 -50.6672 781.047C9.07128 824.667 73.9545 860.757 142.516 888.5C174.801 901.558 207.91 912.476 241.628 921.183C404.85 962.756 499.234 1066.51 612.956 1182.93C681.908 1253.89 760.571 1327.4 841.996 1384.25C944.526 1456 1128.42 1536.01 1233.69 1437.3C1249.75 1422.32 1262.17 1404.59 1273.9 1386.01C1290.71 1359.4 1305.86 1331.33 1327.5 1308.05C1385.66 1245.56 1480.22 1228.53 1568.22 1221.69C1707.77 1211 1874.84 1193.79 1952.02 1057.53C2013.43 949.25 1980.05 811.65 1916.94 705.365C1876.05 635.907 1824 573.667 1762.88 521.148C1699.23 466.78 1621.28 429.965 1561.61 367.819C1448.29 249.709 1369.82 102.819 1246.79 -2.61058C1168.55 -69.6298 1070.21 -131.976 967.111 -178.08C835.019 -237.206 695.977 -269.491 566.704 -204.808C485.221 -163.918 420.656 -95.3319 339.373 -50.9374C200.246 25.3141 30.5591 24.3453 -106.318 106.638Z" stroke="#E0AAFF" stroke-width="2" stroke-miterlimit="10"/>
<path d="M-142.033 93.3299C-223.075 142.538 -282.805 220.277 -309.499 311.285C-327.128 372.577 -328.011 438.969 -306.337 501.059C-266.465 615.322 -183.871 713.827 -84.6167 788.854C-23.5129 834.729 43.1843 872.628 113.864 901.635C147.093 915.228 181.217 926.519 215.995 935.43C384.77 978.171 481.461 1085.6 598.374 1205.53C670.116 1279.42 752.168 1355.95 837.04 1414.96C943.87 1489.36 1136.28 1572.4 1245.85 1467.51C1262.54 1451.58 1275.47 1432.75 1287.54 1413.2C1304.95 1384.93 1320.55 1355.18 1343.05 1330.56C1403.4 1264.26 1502.03 1245.91 1593.68 1238.44C1738.93 1226.73 1913.57 1208.83 1992.83 1065.79C2055.49 952.868 2018.47 810.424 1951.22 701.062C1907.82 629.652 1852.97 565.866 1788.89 512.257C1722.21 456.806 1640.79 419.849 1579.07 355.993C1461.67 234.634 1381.9 82.4449 1255.99 -27.9145C1170.06 -102.666 1073.66 -164.432 969.844 -211.248C833.907 -271.942 689.568 -301.804 556.678 -232.79C472.262 -188.966 405.418 -116.932 321.173 -70.3714C176.72 9.7553 0.255117 7.78919 -142.033 93.3299Z" stroke="#E0AAFF" stroke-width="2" stroke-miterlimit="10"/>
<path d="M-177.719 79.9662C-260.49 130.262 -321.311 209.882 -348.089 302.993C-365.861 365.681 -366.573 433.299 -344.7 496.756C-304.2 614.581 -220.468 717.561 -118.679 796.376C-56.2529 844.515 12.2564 884.19 85.0707 914.372C119.237 928.486 154.367 940.142 190.192 949.25C364.55 993.131 463.605 1104.17 583.65 1227.67C658.183 1304.61 743.539 1384.11 831.943 1445.28C943.017 1522.22 1144.03 1608.36 1257.87 1497.29C1275.21 1480.42 1288.6 1460.47 1301.04 1439.81C1319.04 1409.95 1335.22 1378.52 1358.46 1352.39C1421.12 1282.29 1523.65 1262.63 1619.03 1254.54C1770.17 1241.8 1952.25 1223.2 2033.56 1073.4C2097.27 955.975 2056.55 808.401 1985.46 696.161C1939.51 622.891 1881.9 557.624 1814.92 502.939C1745.23 446.577 1660.35 409.449 1596.53 343.854C1475.03 219.248 1393.98 61.9007 1265.19 -53.5023C1184.05 -126.22 1081.4 -195.975 972.494 -244.416C832.769 -306.534 683.218 -334.06 546.54 -260.8C459.219 -213.984 390.125 -138.416 302.861 -89.6904C153.196 -5.83087 -30.0759 -8.73733 -177.719 79.9662Z" stroke="#E0AAFF" stroke-width="2" stroke-miterlimit="10"/>
<path d="M-213.405 66.5741C-297.906 117.979 -359.823 199.484 -386.709 294.702C-404.566 358.729 -405.221 427.686 -383.092 492.739C-342.137 614.211 -256.952 721.55 -152.713 804.213C-88.9935 854.659 -18.667 896.133 56.305 927.48C91.4447 942.128 127.619 954.157 164.531 963.469C344.442 1008.49 445.69 1123.18 568.954 1250.24C646.25 1330.02 734.938 1412.66 826.844 1476C942.219 1555.61 1151.75 1644.75 1269.86 1527.46C1287.86 1509.62 1301.7 1488.62 1314.57 1466.83C1333.14 1435.34 1349.72 1402.23 1373.87 1374.7C1438.6 1300.79 1545.32 1279.82 1644.43 1271.1C1801.3 1257.33 1990.93 1238.1 2074.29 1081.44C2139.2 959.537 2094.77 807.119 2019.72 691.688C1971.19 616.599 1910.79 549.89 1840.89 494.163C1768.15 436.49 1680.01 399.163 1613.93 331.744C1488.36 203.918 1406.02 41.2994 1274.33 -79.0901C1191.74 -154.658 1086.93 -227.974 975.284 -277.697C831.572 -341.383 676.838 -366.372 536.4 -288.81C446.174 -239.002 374.774 -160.1 284.519 -109.066C129.671 -21.3886 -60.3795 -25.2924 -213.405 66.5741Z" stroke="#E0AAFF" stroke-width="2" stroke-miterlimit="10"/>
<path d="M-249.119 53.21C-335.326 105.718 -398.327 189.085 -425.327 286.381C-443.299 351.918 -443.726 422.015 -421.454 488.692C-379.844 613.612 -293.406 725.425 -186.746 811.906C-121.732 864.632 -49.6001 907.905 27.5122 940.445C63.5484 955.582 100.679 967.965 138.586 977.488C324.079 1023.62 427.634 1141.93 554.202 1272.58C634.289 1355.21 726.338 1440.98 821.69 1506.49C941.308 1588.7 1159.44 1680.88 1281.85 1557.41C1300.48 1538.63 1314.77 1516.52 1328.04 1493.61C1347.21 1460.5 1364.27 1425.71 1389.22 1396.73C1456.18 1319.02 1566.97 1296.74 1669.67 1287.39C1832.29 1272.61 2029.49 1252.69 2114.9 1089.24C2180.98 962.813 2132.85 805.438 2053.81 686.957C2002.77 609.933 1939.6 541.688 1866.75 484.874C1791.02 426.289 1699.49 388.762 1631.22 319.748C1501.6 188.673 1417.76 20.9542 1283.39 -104.564C1199.23 -182.867 1092.4 -259.917 977.678 -310.865C830.519 -376.117 670.516 -398.571 526.262 -316.82C433.131 -264.02 359.424 -181.699 266.207 -128.443C106.147 -36.9753 -90.7103 -41.8478 -249.119 53.21Z" stroke="#E0AAFF" stroke-width="2" stroke-miterlimit="10"/>
<path d="M-1.25386 953.438C35.7487 969.142 73.9251 981.918 112.924 991.65C303.971 1038.95 409.805 1160.85 539.59 1295.06C622.497 1380.77 717.85 1469.48 816.705 1537.26C940.652 1622.09 1167.3 1717.32 1293.95 1587.64C1341.06 1539.43 1361.14 1470.5 1404.74 1419.13C1473.89 1337.63 1588.73 1314.01 1695.24 1304.01C1863.59 1288.22 2068.34 1267.62 2155.83 1097.36C2223.07 966.461 2171.24 804.098 2088.24 682.541C2034.64 603.668 1968.69 533.951 1892.93 476.069C1814.15 416.401 1719.19 378.703 1648.82 307.951C1515.1 173.571 1429.98 0.466451 1292.61 -129.868C1097.18 -315.424 779.481 -497.846 516.151 -344.831C420.115 -289.01 344.1 -203.298 247.893 -147.848C82.7066 -52.5619 -121.014 -58.3748 -284.692 39.8459C-432.79 128.635 -514.928 316.699 -459.733 484.361C-391.607 691.83 -205.402 867.242 -1.25386 953.438Z" stroke="#E0AAFF" stroke-width="2" stroke-miterlimit="10"/>
</g>
</g>
<mask id="mask1_149_2267" style="mask-type:alpha" maskUnits="userSpaceOnUse" x="0" y="0" width="589" height="589">
<rect width="589" height="589" rx="160" fill="#1A2DD8"/>
</mask>
<g mask="url(#mask1_149_2267)">
<rect width="589" height="589" rx="160" fill="#F8EDFF"/>
<g opacity="0.5">
<path d="M892.122 757.139C934.301 796.034 970.244 841.996 1016.75 875.591C1063.26 909.186 1125.29 929.189 1178.38 907.448C1224.6 888.528 1254.34 841.797 1266.75 793.356C1300.93 660.856 1206.95 509.579 1073.09 481.34C1021.08 470.37 964.861 475.442 917.128 452.219C856.436 422.727 821.661 353.314 759.403 327.327C698.426 301.853 627.595 325.276 571.859 360.808C526.29 389.844 484.965 428.198 462.636 477.38C447.314 511.117 442.159 552.463 461.212 584.234C487.186 627.546 545.685 636.636 596.124 634.812C716.881 630.395 802.123 674.163 892.122 757.139Z" stroke="#E0AAFF" stroke-width="2" stroke-miterlimit="10"/>
<path d="M536.202 347.416C488.896 377.421 446.574 417.854 424.046 469.059C408.609 504.164 403.767 546.707 422.878 580.045C449.649 626.833 509.231 640.596 562.09 642.477C595.205 643.508 628.146 647.707 660.462 655.014C675.841 658.548 690.822 662.774 705.404 667.694C768.374 688.752 821.775 727.334 877.426 779.536C896.309 797.231 914.707 816.094 933.362 834.017C958.994 858.807 988.956 883.826 1017.15 896.705C1021.62 898.757 1025.92 900.637 1030.28 902.404C1036.58 904.912 1042.98 907.134 1049.9 909.385C1070.22 916.127 1090.87 921.833 1111.76 926.482C1148.16 934.09 1186.78 932.95 1219.11 915.369C1265.36 890.265 1292.42 840.115 1300.96 788.739C1306.66 753.814 1304.9 718.077 1295.8 683.879C1286.49 648.489 1269.77 615.037 1248.73 583.607C1208.63 523.769 1151.32 474.217 1082.37 455.866C1029.06 441.619 970.586 443.442 920.033 419.023C855.582 387.964 815.965 318.807 749.549 299.346C723.746 291.737 697.002 293.504 669.547 298.035C623.665 305.643 576.302 322.113 536.202 347.416Z" stroke="#E0AAFF" stroke-width="2" stroke-miterlimit="10"/>
<path d="M500.515 334.052C451.386 364.94 408.124 407.511 385.453 460.739C369.903 497.241 365.318 540.98 384.485 575.886C412.083 626.15 472.775 644.586 528.055 650.171C562.974 653.62 597.6 659.572 631.667 667.98C648.053 672.045 664.05 676.652 679.657 681.8C748.181 703.997 803.946 746.084 862.9 801.904C884.574 822.506 906.361 844.39 928.405 864.592C958.367 891.919 996.758 919.9 1029.31 926.825C1034.44 927.907 1039.19 928.734 1043.98 929.361C1050.84 930.215 1057.74 930.757 1065.48 931.583C1086.13 933.72 1111.85 938.906 1137.25 942.981C1179.4 949.506 1224.57 946.799 1259.97 923.377C1306.37 892.688 1330.64 838.605 1335.33 784.209C1338.35 747.248 1333.74 710.061 1321.78 674.961C1309.47 638.488 1289.34 604.865 1266.16 571.754C1221.98 508.638 1163.63 453.416 1091.54 430.506C1036.77 413.039 976.025 411.529 922.424 385.884C854.214 353.258 809.271 284.7 739.181 271.307C710.33 265.808 681.394 271.877 650.892 278.63C600.168 290.057 545.913 305.472 500.515 334.052Z" stroke="#E0AAFF" stroke-width="2" stroke-miterlimit="10"/>
<path d="M464.802 320.659C413.907 352.545 369.705 397.281 346.835 452.447C331.171 490.316 326.899 535.28 346.095 571.725C374.575 625.494 436.207 648.66 494.023 657.893C530.683 663.741 567.023 671.445 602.903 680.973C620.22 685.57 637.213 690.538 653.883 695.876C727.933 719.213 786.118 764.861 848.063 824.358C872.557 847.894 897.676 872.799 923.195 895.167C957.371 925.086 1004.39 956.06 1041.22 956.857C1046.61 956.973 1052 956.764 1057.37 956.231C1064.83 955.49 1072.2 954.35 1080.78 953.752C1103.56 952.07 1133.38 955.946 1162.49 959.28C1210.36 964.751 1262.17 960.676 1300.56 931.155C1347.27 895.338 1368.63 836.952 1369.43 779.45C1369.82 740.494 1362.4 701.853 1347.61 665.814C1332.26 628.287 1308.74 594.578 1283.42 559.643C1235.17 493.28 1175.73 432.415 1100.54 404.918C1044.61 384.459 981.58 379.529 925.046 352.687C853.076 318.494 802.58 250.933 729.043 243.268C697.06 239.934 666.073 250.249 632.666 259.225C576.644 274.498 515.582 289.002 464.802 320.659Z" stroke="#E0AAFF" stroke-width="2" stroke-miterlimit="10"/>
<path d="M429.114 307.296C376.425 340.121 331.255 386.881 308.243 444.07C292.436 483.335 288.307 529.553 307.73 567.537C336.866 624.811 399.694 652.393 459.987 665.529C498.977 674.078 537.14 683.424 574.137 693.881C592.421 699.048 610.459 704.386 628.25 709.895C707.995 734.372 768.345 783.611 833.48 846.669C860.793 873.141 889.216 901.122 918.238 925.628C956.772 958.14 1012.22 992.134 1053.38 986.777C1059.35 985.982 1065.24 984.715 1071.01 982.987C1079.07 980.622 1086.93 977.801 1096.3 975.778C1121.39 970.307 1155.17 972.929 1187.95 975.579C1241.58 980.024 1299.99 974.752 1341.4 938.963C1388.54 898.244 1406.91 835.3 1403.74 774.72C1401.53 733.78 1391.32 693.672 1373.67 656.668C1355.33 618.086 1328.39 584.092 1300.9 547.533C1248.61 477.95 1188.09 411.5 1109.8 379.416C1052.55 355.908 987.331 347.53 927.807 319.577C852.078 283.845 795.886 217.595 719.017 215.315C683.843 214.29 650.835 228.622 614.437 239.878C553.061 258.798 485.249 272.333 429.114 307.296Z" stroke="#E0AAFF" stroke-width="2" stroke-miterlimit="10"/>
<path d="M393.43 293.932C338.947 327.727 292.837 376.566 269.625 435.835C253.733 476.468 249.917 523.912 269.34 563.434C299.245 624.241 363.155 656.383 425.983 673.28C466.34 684.165 506.383 695.335 545.401 706.904C564.654 712.603 583.641 718.301 602.362 724C687.604 749.645 750.461 802.474 818.814 869.18C848.946 898.558 880.702 929.617 913.198 956.26C955.919 991.393 1019.94 1028.44 1065.43 1016.9C1072.02 1015.18 1078.44 1012.85 1084.59 1009.94C1093.41 1005.45 1102.48 1001.47 1111.76 998.032C1139.05 988.743 1176.9 989.969 1213.35 992.077C1272.71 995.496 1337.87 989.228 1382.13 946.97C1429.83 901.379 1445.04 833.818 1438.01 770.304C1433.16 727.388 1420.15 685.798 1399.67 647.777C1378.28 608.17 1347.95 573.977 1318.33 535.737C1261.97 462.905 1200.37 390.928 1118.97 354.027C1060.41 327.499 992.801 315.645 930.457 286.381C850.826 249.11 788.853 184.399 708.765 187.277C670.374 188.645 635.371 206.967 596.011 220.445C529.68 243.212 454.919 255.749 393.43 293.932Z" stroke="#E0AAFF" stroke-width="2" stroke-miterlimit="10"/>
<path d="M357.715 280.454C301.494 315.246 254.388 366.137 231.005 427.457C214.999 469.458 211.439 518.127 231.005 559.188C261.622 623.528 326.671 660.172 391.948 680.916C433.672 694.166 475.567 707.131 516.636 719.812C536.857 726.023 556.879 732.15 576.644 738.048C667.44 764.804 732.489 821.224 804.032 891.52C836.927 923.861 872.015 957.969 908.014 986.777C955.121 1024.5 1027.63 1064.6 1077.36 1046.87C1084.57 1044.22 1091.49 1040.83 1098.01 1036.76C1107.31 1030.55 1117.03 1024.99 1127.09 1020.12C1156.56 1007.04 1198.46 1006.95 1238.59 1008.43C1303.69 1010.8 1375.72 1003.5 1422.74 954.806C1471.16 904.713 1483.12 832.28 1472.13 765.517C1464.67 720.662 1448.86 677.609 1425.5 638.602C1401.18 597.997 1367.35 563.633 1335.68 523.683C1275.24 447.631 1212.53 370.155 1128.08 328.524C1068.27 298.975 998.297 283.617 933.049 253.156C849.772 214.318 782.102 151.488 698.711 159.267C657.101 163.142 620.162 185.453 577.783 201.068C506.07 227.767 424.587 239.194 357.715 280.454Z" stroke="#E0AAFF" stroke-width="2" stroke-miterlimit="10"/>
<path d="M322.028 267.175C264.013 302.965 215.938 355.908 192.413 419.222C176.265 462.62 172.933 512.542 192.584 555.113C223.913 622.987 290.13 664.133 357.771 688.695C400.862 704.311 444.637 719.071 487.727 732.862C508.917 739.615 529.964 746.112 550.726 752.21C647.104 780.106 714.461 840.173 789.193 914.03C824.908 949.307 863.243 986.435 902.802 1017.44C954.067 1057.76 1035.12 1100.93 1089.24 1076.99C1097.1 1073.39 1104.54 1068.94 1111.42 1063.71C1121.19 1056.5 1130.5 1048.64 1142.35 1042.37C1174.05 1025.47 1219.99 1024.08 1263.82 1024.93C1334.65 1026.27 1413.66 1018.09 1463.33 962.813C1512.46 908.161 1521.14 830.769 1506.05 760.986C1495.98 714.209 1477.39 669.688 1451.19 629.655C1423.97 587.91 1386.94 553.346 1352.99 511.687C1288.48 432.387 1224.66 349.468 1137.14 303.05C1075.88 270.566 1003.77 251.76 935.583 219.988C848.575 179.583 775.096 118.747 688.486 131.256C643.658 137.725 604.754 163.854 559.356 181.692C482.544 212.067 394.255 222.638 322.028 267.175Z" stroke="#E0AAFF" stroke-width="2" stroke-miterlimit="10"/>
<path d="M286.342 253.812C226.533 290.57 177.518 345.564 153.794 410.931C137.56 455.695 134.427 506.872 154.221 550.953C186.262 622.389 253.618 668.008 323.822 696.275C368.309 714.255 413.934 730.81 459.076 745.713C481.234 753.008 503.24 759.827 525.094 766.172C627.025 795.35 696.66 858.893 774.611 936.427C813.117 974.667 854.869 1014.84 897.846 1048.01C953.497 1090.95 1043.1 1137.17 1101.4 1107.02C1109.9 1102.48 1117.84 1096.96 1125.06 1090.58C1135.43 1081.75 1145.23 1072.2 1157.9 1064.51C1191.79 1043.82 1241.69 1041.26 1289.31 1041.26C1365.84 1041.63 1451.91 1032.71 1504.17 970.649C1554.09 911.494 1559.45 829.174 1540.54 756.313C1527.86 707.616 1506.48 661.616 1477.42 620.536C1446.98 577.795 1406.45 543.031 1370.39 499.634C1301.81 417.228 1236.85 328.895 1146.28 277.604C1083.62 242.186 1009.29 219.704 938.232 186.849C847.436 144.877 768.289 86.1496 678.347 103.275C630.329 112.336 589.488 142.255 541.071 162.287C459.019 196.623 363.923 206.083 286.342 253.812Z" stroke="#E0AAFF" stroke-width="2" stroke-miterlimit="10"/>
<path d="M250.571 240.561C189.024 278.317 139.013 335.391 115.146 402.781C98.7697 448.914 95.8647 501.344 115.773 546.935C148.525 621.933 217.078 672.026 289.731 704.225C335.613 724.57 383.09 742.921 430.225 758.963C453.371 766.808 476.383 773.999 499.262 780.533C606.776 810.709 678.689 877.985 759.859 958.995C801.155 1000.2 846.268 1043.4 892.72 1078.67C952.529 1124.26 1050.67 1173.53 1113.39 1137.14C1122.52 1131.63 1130.96 1125.05 1138.53 1117.54C1149.5 1107.11 1159.78 1095.85 1173.28 1086.76C1209.37 1062.26 1263.42 1058.27 1314.6 1057.81C1396.88 1057.16 1490.07 1047.3 1544.84 978.713C1595.7 914.971 1597.7 827.549 1574.91 751.754C1559.64 701.144 1535.46 653.668 1503.51 611.561C1470.08 567.708 1426.13 532.802 1387.91 487.723C1315.28 401.955 1249.15 308.208 1155.57 252.102C1091.6 213.777 1014.99 187.704 941.023 153.653C846.468 110.113 761.596 53.6086 668.351 75.2359C617.086 87.1182 574.223 120.656 522.872 142.911C435.494 181.036 333.62 189.528 250.571 240.561Z" stroke="#E0AAFF" stroke-width="2" stroke-miterlimit="10"/>
<path d="M214.942 227.055C151.629 265.808 100.649 324.905 76.5834 394.318C60.0932 441.847 57.4161 495.531 77.4663 542.632C110.902 621.163 180.623 675.731 255.754 711.805C303.194 734.483 351.857 754.507 401.517 771.786C425.612 780.163 449.706 787.771 473.573 794.581C586.64 825.925 660.832 896.82 745.248 981.392C789.307 1025.53 837.696 1071.89 887.65 1109.28C951.731 1157.55 1058.53 1209.8 1125.41 1167.2C1135.19 1160.71 1144.15 1153.06 1152.09 1144.41C1163.63 1132.36 1174.39 1119.45 1188.69 1108.9C1227 1080.64 1285.1 1075.28 1339.98 1074.23C1427.98 1072.55 1528.35 1061.92 1585.56 986.606C1637.31 918.476 1635.83 826.21 1608.95 747.252C1591.12 694.679 1564.17 645.66 1529.34 602.443C1492.86 557.535 1445.53 522.43 1405.17 475.642C1328.47 386.625 1261.17 287.578 1164.57 226.542C1099.29 185.396 1020.4 155.762 943.5 120.486C845.186 75.2932 754.675 21.1535 658.069 47.2545C603.757 61.9007 558.758 99.0576 504.275 123.534C411.969 165.478 303.288 173.001 214.942 227.055Z" stroke="#E0AAFF" stroke-width="2" stroke-miterlimit="10"/>
<path d="M179.369 213.691C114.291 253.412 62.3144 314.59 38.0775 386.026C21.5019 434.923 18.9956 489.889 39.1883 538.472C73.3648 620.593 144.253 679.577 221.834 719.498C270.654 744.558 321.08 766.357 372.78 784.75C397.843 793.669 422.934 801.648 447.826 808.543C566.476 841.027 642.946 915.569 730.58 1003.67C777.431 1050.8 829.151 1100.19 882.666 1139.74C951.019 1190.63 1066.28 1245.93 1137.54 1197.12C1147.94 1189.67 1157.4 1180.97 1165.7 1171.22C1177.84 1157.52 1189.09 1142.93 1204.21 1130.99C1244.71 1098.9 1306.74 1092.35 1365.41 1090.55C1459.2 1088.05 1566.8 1076.48 1626.35 994.442C1679.09 921.838 1674.11 824.557 1643.24 742.493C1622.8 688.095 1593.05 637.676 1555.32 593.495C1515.84 547.533 1465.09 512.228 1422.6 463.731C1341.8 371.494 1273.36 267.118 1173.74 201.182C1107.01 157.044 1025.98 123.791 946.177 87.2036C844.075 40.5295 748.096 -11.3591 647.958 19.1301C590.542 36.5973 543.435 77.3445 486.104 104.044C388.444 149.892 272.984 156.445 179.369 213.691Z" stroke="#E0AAFF" stroke-width="2" stroke-miterlimit="10"/>
<path d="M143.54 200.327C76.6964 241.046 23.9221 304.275 -0.628031 377.706C-17.3461 427.999 -19.653 484.219 0.710555 534.426C35.4852 620.109 107.655 683.51 187.685 727.306C237.942 754.714 290.189 778.299 343.986 797.858C370.017 807.29 396.133 815.667 422.051 822.762C546.254 856.358 625.003 934.547 715.855 1026.21C765.497 1076.28 820.549 1128.79 877.567 1170.42C950.193 1223.91 1074.08 1282.29 1149.53 1227.41C1160.61 1218.89 1170.58 1209 1179.2 1197.98C1191.93 1182.68 1203.67 1166.38 1219.62 1153.01C1262.34 1117.14 1328.53 1109.28 1390.76 1106.85C1490.27 1103.32 1605.16 1091.01 1667.02 1002.25C1720.76 925.143 1712.27 822.734 1677.41 737.763C1654.4 681.467 1621.87 629.56 1581.23 584.32C1538.71 537.332 1484.57 501.857 1439.94 451.621C1355.07 356.164 1285.41 246.46 1182.82 175.594C1114.67 128.578 1031.45 91.706 948.74 54.0078C842.964 5.93743 741.431 -43.5861 637.904 -8.76576C577.383 11.5509 528.197 55.8599 467.876 84.7534C364.919 134.334 242.652 139.919 143.54 200.327Z" stroke="#E0AAFF" stroke-width="2" stroke-miterlimit="10"/>
<path d="M107.855 186.935C39.246 228.679 -14.6106 293.932 -39.2462 369.3C-56.0497 420.96 -58.1857 478.434 -37.6798 530.038C-2.2216 619.539 71.1441 687.242 153.738 734.913C205.379 764.657 259.426 790.012 315.307 810.709C342.307 820.682 369.42 829.43 396.363 836.724C526.148 871.459 607.118 953.296 701.104 1048.5C753.536 1101.55 811.95 1157 872.442 1200.86C949.34 1256.99 1081.72 1318.45 1161.52 1257.19C1173.27 1247.8 1183.8 1236.98 1192.85 1224.96C1206.15 1208.04 1218.48 1190.06 1235.11 1175.3C1280.03 1135.6 1350.29 1126.43 1416.22 1123.38C1521.6 1118.82 1643.69 1105.8 1707.86 1010.26C1762.63 928.705 1750.58 821.423 1711.76 733.261C1686.17 675.076 1650.84 621.689 1607.3 575.401C1561.73 527.331 1504.22 491.684 1457.46 439.767C1368.52 341.062 1297.63 225.915 1192.11 150.234C1122.53 100.34 1037.12 59.8488 951.504 20.9537C841.883 -28.7978 735.052 -75.9278 627.738 -36.7762C564.17 -13.5532 512.848 34.2607 449.507 65.3768C341.395 118.747 212.35 123.363 107.855 186.935Z" stroke="#E0AAFF" stroke-width="2" stroke-miterlimit="10"/>
<path d="M72.169 173.571C1.87919 216.313 -53.1451 283.617 -77.8376 361.122C-94.7835 414.15 -96.7202 472.906 -76.0434 526.02C-39.9586 618.798 34.6887 691.06 119.589 742.579C172.614 774.654 228.471 801.79 286.456 823.646C314.424 834.189 342.563 843.278 370.53 850.772C505.87 886.647 589.147 972.131 686.493 1070.89C741.66 1126.88 803.434 1185.38 867.429 1231.4C948.627 1290.13 1089.58 1354.67 1173.59 1287.2C1185.94 1276.83 1196.93 1264.93 1206.29 1251.8C1220.19 1233.26 1232.89 1213.62 1250.46 1197.44C1297.6 1153.93 1371.9 1143.3 1441.48 1139.76C1552.56 1134.07 1682.08 1120.45 1748.5 1018.15C1804.32 932.125 1788.77 819.827 1745.88 728.616C1717.75 668.497 1679.65 613.58 1633.18 566.197C1584.62 517.244 1523.65 481.398 1474.75 427.771C1381.76 325.817 1309.56 205.513 1201.16 124.76C1130.16 72.0161 1042.58 27.878 954.038 -12.2138C840.658 -63.504 728.302 -108.212 617.513 -64.7863C550.926 -38.6852 497.411 12.605 431.108 46.0006C317.87 103.189 182.218 107.036 72.169 173.571Z" stroke="#E0AAFF" stroke-width="2" stroke-miterlimit="10"/>
<path d="M36.4548 160.207C-35.6008 204.06 -91.5365 273.301 -116.457 352.801C-133.545 407.197 -135.254 467.235 -114.435 521.86C-77.695 618.228 -1.79449 694.907 85.5551 750.3C139.944 784.703 197.604 813.633 257.691 836.667C286.193 847.607 315.255 857.023 344.756 864.877C485.677 901.92 571.204 991.022 671.797 1093.35C729.755 1152.3 794.89 1213.82 862.36 1262.01C947.801 1323.35 1097.32 1390.94 1185.64 1317.26C1198.62 1305.91 1210.11 1292.95 1219.82 1278.7C1234.32 1258.56 1247.5 1237.22 1265.9 1219.61C1315.23 1172.3 1393.58 1160.51 1466.86 1156.21C1583.63 1149.59 1720.59 1135.18 1789.23 1026.07C1846.19 935.572 1826.99 818.288 1780.11 724.028C1749.41 662.072 1708.52 605.714 1659.16 557.307C1607.58 507.156 1543.21 471.111 1492.15 415.774C1395.09 310.601 1321.72 184.968 1210.19 99.2852C1137.77 43.6923 1047.85 -4.09309 956.573 -45.3817C839.547 -98.2676 721.78 -140.497 607.374 -92.8252C537.768 -63.7892 482.06 -8.99418 412.796 26.567C294.345 87.6024 151.829 90.5089 36.4548 160.207Z" stroke="#E0AAFF" stroke-width="2" stroke-miterlimit="10"/>
<path d="M0.767288 146.815C-73.0541 191.665 -129.958 262.959 -155.049 344.51C-172.138 400.274 -173.818 461.594 -152.828 517.7C-115.433 617.63 -38.251 698.726 51.5195 757.994C107.25 794.712 166.706 825.429 228.896 849.633C258.33 861.101 288.386 870.9 318.923 878.982C465.426 917.136 553.203 1009.89 657.014 1115.74C717.763 1177.69 786.23 1242.23 857.204 1292.58C946.946 1356.52 1105.15 1427.36 1197.6 1347.26C1211.23 1334.94 1223.22 1320.94 1233.29 1305.57C1248.35 1283.8 1262.03 1260.78 1281.22 1241.77C1332.77 1190.66 1415.08 1177.55 1492.12 1172.62C1614.58 1164.98 1759.07 1149.82 1829.84 1033.99C1887.88 939.02 1865.16 816.693 1814.26 719.413C1781.02 655.584 1737.37 597.753 1685.1 548.303C1630.51 497.013 1562.64 460.853 1509.55 403.836C1408.41 295.414 1333.8 164.481 1219.45 73.8686C1145.6 15.4548 1053.72 -36.0349 959.306 -78.5773C838.407 -133.002 715.285 -172.78 597.234 -120.778C524.637 -88.8068 466.765 -30.5355 394.453 7.21984C270.819 72.045 121.525 73.9541 0.767288 146.815Z" stroke="#E0AAFF" stroke-width="2" stroke-miterlimit="10"/>
<path d="M-34.9455 133.451C-110.504 179.27 -168.405 252.643 -193.667 336.189C-210.955 393.349 -212.35 455.866 -191.189 513.539C-153.168 617.06 -74.7327 702.544 17.4871 765.716C74.5575 804.74 135.822 837.237 200.132 862.598C230.551 874.607 261.66 884.788 293.292 893.087C445.378 932.381 535.205 1028.98 642.463 1138.14C705.86 1203.16 777.83 1270.61 852.278 1323.13C946.264 1389.69 1113.05 1463.58 1209.77 1377.27C1224.55 1364.19 1236.11 1348.77 1246.96 1332.42C1262.62 1309.02 1276.78 1284.32 1296.8 1263.89C1350.54 1209.01 1437.01 1194.56 1517.64 1189C1645.8 1180.45 1797.77 1164.53 1870.8 1041.86C1929.95 942.411 1903.61 815.097 1848.7 714.74C1812.89 649.024 1766.44 589.709 1711.22 539.213C1653.6 486.926 1582.46 450.538 1527.09 391.782C1421.89 280.112 1345.99 143.88 1228.73 48.3374C1153.4 -13.0399 1059.22 -68.0058 961.957 -111.716C837.269 -167.737 708.822 -205.036 587.097 -148.788C511.538 -113.854 451.416 -52.1344 376.142 -12.014C247.296 56.4584 91.0806 57.4272 -34.9455 133.451Z" stroke="#E0AAFF" stroke-width="2" stroke-miterlimit="10"/>
<path d="M-70.633 120.087C-147.986 166.903 -206.855 242.3 -232.288 327.898C-249.69 386.425 -250.914 450.424 -229.44 509.38C-190.878 616.462 -111.132 706.362 -16.5486 773.41C41.8801 814.738 104.972 849.035 171.423 875.592C202.769 888.115 234.873 898.65 267.544 907.135C425.184 947.597 517.289 1047.81 627.794 1160.57C693.954 1228.55 769.256 1299.05 847.093 1353.73C945.493 1422.89 1120.73 1499.82 1221.75 1407.33C1237.16 1393.31 1249.18 1376.64 1260.43 1359.32C1276.69 1334.33 1291.33 1308.02 1312.18 1286.08C1368.12 1227.39 1458.63 1211.63 1542.87 1205.44C1676.73 1195.78 1836.22 1179.26 1911.32 1049.81C1971.59 945.859 1941.66 813.53 1882.84 710.152C1844.48 642.559 1795.23 581.761 1737.08 530.209C1676.44 476.867 1601.91 440.28 1544.38 379.815C1435.13 264.925 1357.95 123.364 1237.79 22.892C1160.89 -41.2778 1064.83 -99.9766 964.632 -144.884C836.214 -202.471 702.441 -237.292 577.013 -176.798C498.492 -138.9 436.149 -73.7331 357.884 -31.4756C223.77 40.9005 60.8898 40.872 -70.633 120.087Z" stroke="#E0AAFF" stroke-width="2" stroke-miterlimit="10"/>
<path d="M-106.318 106.638C-185.648 154.752 -244.292 230.627 -270.878 319.549C-288.394 379.387 -289.447 444.554 -268.03 505.162C-228.756 615.835 -147.729 710.124 -50.6672 781.047C9.07128 824.667 73.9545 860.757 142.516 888.5C174.801 901.558 207.91 912.476 241.628 921.183C404.85 962.756 499.234 1066.51 612.956 1182.93C681.908 1253.89 760.571 1327.4 841.996 1384.25C944.526 1456 1128.42 1536.01 1233.69 1437.3C1249.75 1422.32 1262.17 1404.59 1273.9 1386.01C1290.71 1359.4 1305.86 1331.33 1327.5 1308.05C1385.66 1245.56 1480.22 1228.53 1568.22 1221.69C1707.77 1211 1874.84 1193.79 1952.02 1057.53C2013.43 949.25 1980.05 811.65 1916.94 705.365C1876.05 635.907 1824 573.667 1762.88 521.148C1699.23 466.78 1621.28 429.965 1561.61 367.819C1448.29 249.709 1369.82 102.819 1246.79 -2.61058C1168.55 -69.6298 1070.21 -131.976 967.111 -178.08C835.019 -237.206 695.977 -269.491 566.704 -204.808C485.221 -163.918 420.656 -95.3319 339.373 -50.9374C200.246 25.3141 30.5591 24.3453 -106.318 106.638Z" stroke="#E0AAFF" stroke-width="2" stroke-miterlimit="10"/>
<path d="M-142.033 93.3299C-223.075 142.538 -282.805 220.277 -309.499 311.285C-327.128 372.577 -328.011 438.969 -306.337 501.059C-266.465 615.322 -183.871 713.827 -84.6167 788.854C-23.5129 834.729 43.1843 872.628 113.864 901.635C147.093 915.228 181.217 926.519 215.995 935.43C384.77 978.171 481.461 1085.6 598.374 1205.53C670.116 1279.42 752.168 1355.95 837.04 1414.96C943.87 1489.36 1136.28 1572.4 1245.85 1467.51C1262.54 1451.58 1275.47 1432.75 1287.54 1413.2C1304.95 1384.93 1320.55 1355.18 1343.05 1330.56C1403.4 1264.26 1502.03 1245.91 1593.68 1238.44C1738.93 1226.73 1913.57 1208.83 1992.83 1065.79C2055.49 952.868 2018.47 810.424 1951.22 701.062C1907.82 629.652 1852.97 565.866 1788.89 512.257C1722.21 456.806 1640.79 419.849 1579.07 355.993C1461.67 234.634 1381.9 82.4449 1255.99 -27.9145C1170.06 -102.666 1073.66 -164.432 969.844 -211.248C833.907 -271.942 689.568 -301.804 556.678 -232.79C472.262 -188.966 405.418 -116.932 321.173 -70.3714C176.72 9.7553 0.255117 7.78919 -142.033 93.3299Z" stroke="#E0AAFF" stroke-width="2" stroke-miterlimit="10"/>
<path d="M-177.719 79.9662C-260.49 130.262 -321.311 209.882 -348.089 302.993C-365.861 365.681 -366.573 433.299 -344.7 496.756C-304.2 614.581 -220.468 717.561 -118.679 796.376C-56.2529 844.515 12.2564 884.19 85.0707 914.372C119.237 928.486 154.367 940.142 190.192 949.25C364.55 993.131 463.605 1104.17 583.65 1227.67C658.183 1304.61 743.539 1384.11 831.943 1445.28C943.017 1522.22 1144.03 1608.36 1257.87 1497.29C1275.21 1480.42 1288.6 1460.47 1301.04 1439.81C1319.04 1409.95 1335.22 1378.52 1358.46 1352.39C1421.12 1282.29 1523.65 1262.63 1619.03 1254.54C1770.17 1241.8 1952.25 1223.2 2033.56 1073.4C2097.27 955.975 2056.55 808.401 1985.46 696.161C1939.51 622.891 1881.9 557.624 1814.92 502.939C1745.23 446.577 1660.35 409.449 1596.53 343.854C1475.03 219.248 1393.98 61.9007 1265.19 -53.5023C1184.05 -126.22 1081.4 -195.975 972.494 -244.416C832.769 -306.534 683.218 -334.06 546.54 -260.8C459.219 -213.984 390.125 -138.416 302.861 -89.6904C153.196 -5.83087 -30.0759 -8.73733 -177.719 79.9662Z" stroke="#E0AAFF" stroke-width="2" stroke-miterlimit="10"/>
<path d="M-213.405 66.5741C-297.906 117.979 -359.823 199.484 -386.709 294.702C-404.566 358.729 -405.221 427.686 -383.092 492.739C-342.137 614.211 -256.952 721.55 -152.713 804.213C-88.9935 854.659 -18.667 896.133 56.305 927.48C91.4447 942.128 127.619 954.157 164.531 963.469C344.442 1008.49 445.69 1123.18 568.954 1250.24C646.25 1330.02 734.938 1412.66 826.844 1476C942.219 1555.61 1151.75 1644.75 1269.86 1527.46C1287.86 1509.62 1301.7 1488.62 1314.57 1466.83C1333.14 1435.34 1349.72 1402.23 1373.87 1374.7C1438.6 1300.79 1545.32 1279.82 1644.43 1271.1C1801.3 1257.33 1990.93 1238.1 2074.29 1081.44C2139.2 959.537 2094.77 807.119 2019.72 691.688C1971.19 616.599 1910.79 549.89 1840.89 494.163C1768.15 436.49 1680.01 399.163 1613.93 331.744C1488.36 203.918 1406.02 41.2994 1274.33 -79.0901C1191.74 -154.658 1086.93 -227.974 975.284 -277.697C831.572 -341.383 676.838 -366.372 536.4 -288.81C446.174 -239.002 374.774 -160.1 284.519 -109.066C129.671 -21.3886 -60.3795 -25.2924 -213.405 66.5741Z" stroke="#E0AAFF" stroke-width="2" stroke-miterlimit="10"/>
<path d="M-249.119 53.21C-335.326 105.718 -398.327 189.085 -425.327 286.381C-443.299 351.918 -443.726 422.015 -421.454 488.692C-379.844 613.612 -293.406 725.425 -186.746 811.906C-121.732 864.632 -49.6001 907.905 27.5122 940.445C63.5484 955.582 100.679 967.965 138.586 977.488C324.079 1023.62 427.634 1141.93 554.202 1272.58C634.289 1355.21 726.338 1440.98 821.69 1506.49C941.308 1588.7 1159.44 1680.88 1281.85 1557.41C1300.48 1538.63 1314.77 1516.52 1328.04 1493.61C1347.21 1460.5 1364.27 1425.71 1389.22 1396.73C1456.18 1319.02 1566.97 1296.74 1669.67 1287.39C1832.29 1272.61 2029.49 1252.69 2114.9 1089.24C2180.98 962.813 2132.85 805.438 2053.81 686.957C2002.77 609.933 1939.6 541.688 1866.75 484.874C1791.02 426.289 1699.49 388.762 1631.22 319.748C1501.6 188.673 1417.76 20.9542 1283.39 -104.564C1199.23 -182.867 1092.4 -259.917 977.678 -310.865C830.519 -376.117 670.516 -398.571 526.262 -316.82C433.131 -264.02 359.424 -181.699 266.207 -128.443C106.147 -36.9753 -90.7103 -41.8478 -249.119 53.21Z" stroke="#E0AAFF" stroke-width="2" stroke-miterlimit="10"/>
<path d="M-1.25386 953.438C35.7487 969.142 73.9251 981.918 112.924 991.65C303.971 1038.95 409.805 1160.85 539.59 1295.06C622.497 1380.77 717.85 1469.48 816.705 1537.26C940.652 1622.09 1167.3 1717.32 1293.95 1587.64C1341.06 1539.43 1361.14 1470.5 1404.74 1419.13C1473.89 1337.63 1588.73 1314.01 1695.24 1304.01C1863.59 1288.22 2068.34 1267.62 2155.83 1097.36C2223.07 966.461 2171.24 804.098 2088.24 682.541C2034.64 603.668 1968.69 533.951 1892.93 476.069C1814.15 416.401 1719.19 378.703 1648.82 307.951C1515.1 173.571 1429.98 0.466451 1292.61 -129.868C1097.18 -315.424 779.481 -497.846 516.151 -344.831C420.115 -289.01 344.1 -203.298 247.893 -147.848C82.7066 -52.5619 -121.014 -58.3748 -284.692 39.8459C-432.79 128.635 -514.928 316.699 -459.733 484.361C-391.607 691.83 -205.402 867.242 -1.25386 953.438Z" stroke="#E0AAFF" stroke-width="2" stroke-miterlimit="10"/>
</g>
</g>
<path d="M418.595 128.411C418.609 128.341 418.671 128.282 418.754 128.284L426.234 128.455L426.838 128.459L426.837 128.469L461.812 129.271C461.949 129.274 462.018 129.437 461.925 129.537L442.269 150.57L442.273 150.575L442.003 150.854L439.844 153.166C439.811 153.201 439.767 153.217 439.724 153.216L316.289 281.107L455.469 424.711L455.562 424.598C455.625 424.522 455.741 424.52 455.806 424.595L478.23 450.66C478.318 450.762 478.247 450.921 478.112 450.923L441.954 451.4V451.438L439.896 451.428L433.959 451.507C433.884 451.508 433.828 451.459 433.808 451.397L361.043 451.039V450.968L361.022 450.988L304.891 393.073C295.914 394.492 286.708 390.489 282.079 382.316C276.071 371.708 280.052 358.096 290.971 351.912C301.889 345.729 315.611 349.315 321.619 359.923L321.894 360.423C324.635 365.572 325.072 371.379 323.549 376.681L370.571 425.199L418.068 425.434L297.279 300.804L253.107 346.571V447.125H138V132.365H253.107V201.308L253.205 201.41L161.021 289.69V424.104H230.086V331.997H230.161L400.633 155.368L360.169 155.137L207.095 312.32L207.98 366.506L213.145 373.36C217.923 379.704 216.654 388.72 210.311 393.498C203.967 398.276 194.951 397.007 190.173 390.664L183.152 381.344C181.758 379.492 180.879 377.413 180.49 375.277L180.276 375.281L179.045 299.989L179.036 299.98L179.045 299.971V299.969L179.047 299.968L346.487 128.034L346.519 128.064L346.52 128L418.595 128.411ZM308.495 367.356C306.793 364.351 302.433 362.754 298.403 365.036C294.374 367.318 293.502 371.877 295.204 374.883C296.906 377.888 301.265 379.485 305.294 377.203C309.323 374.921 310.197 370.362 308.495 367.356ZM161.021 260.338L230.086 194.197V155.387H161.021V260.338Z" fill="#5A189A"/>
<path d="M378.579 271.354C386.476 267.011 395.945 269.841 399.914 277.056C403.883 284.272 401.203 293.785 393.305 298.129C385.407 302.473 375.938 299.642 371.969 292.426C368.001 285.211 370.681 275.698 378.579 271.354Z" fill="#5A189A" stroke="#5A189A" stroke-width="15.0831"/>
<path d="M466.613 353.815L463.13 382.891L384.281 300.999L400.904 285.571L466.613 353.815Z" fill="#5A189A"/>
</svg>
